<svg width="350" height="350" viewBox="0 0 580 603" fill="none" xmlns="http://www.w3.org/2000/svg">
<path d="M178.594 296.017C155.158 291.609 152.914 263.639 169.527 238.148C178.322 224.78 185.33 208.673 198.48 200.193C209.052 193.38 228.718 195.791 242.894 195.791C260.923 195.791 274.152 192.656 287.275 198.168C300.398 203.679 307.74 213.002 316.047 225.748C328.889 245.727 332.561 286.051 315.69 293.341C291.083 303.972 266.955 293.952 241.278 297.394L178.594 296.017Z" fill="#01AA5A"/>
<g opacity="0.3">
<path d="M180.11 278.077C176.19 274.658 175.7 267.31 178.313 262.866C180.11 259.789 185.704 254.493 187.827 257.399C190.441 261.501 189.908 276.367 185.987 280.298L180.11 278.077ZM308.38 278.077C312.3 274.658 312.791 267.31 310.177 262.866C308.38 259.789 302.786 254.493 300.663 257.399C298.05 261.501 298.582 276.367 302.503 280.298L308.38 278.077Z" fill="#505285"/>
</g>
<path opacity="0.3" d="M247.561 554.457C317.059 554.457 373.398 547.525 373.398 538.975C373.398 530.424 317.059 523.492 247.561 523.492C178.063 523.492 121.723 530.424 121.723 538.975C121.723 547.525 178.063 554.457 247.561 554.457Z" fill="#ABB4FF"/>
<path d="M223.23 521.589H210.809V529.539H223.23V521.589Z" fill="white"/>
<path d="M209.864 528.055C208.176 530.089 205.898 529.912 199.939 532.762C198.257 533.55 195.087 534.5 193.779 535.969C191.552 538.473 192.268 541.8 197.095 543.447C203.798 545.731 205.513 544.392 214.881 544.392C218.948 544.392 228.274 541.023 228.04 537.101C227.758 532.35 225.952 531.856 224.818 528.055H209.864Z" fill="#806223"/>
<g opacity="0.3">
<path d="M216.619 541.49C207.25 541.49 205.535 542.829 198.833 540.544C195.423 539.381 194.1 537.381 194.381 535.424C194.155 535.598 193.951 535.779 193.781 535.971C191.554 538.474 192.27 541.802 197.097 543.448C203.799 545.733 205.515 544.394 214.883 544.394C218.879 544.394 227.926 541.14 228.023 537.307C225.169 539.742 219.541 541.49 216.619 541.49Z" fill="#505285"/>
</g>
<path d="M283.591 518.616H271.174V526.567H283.591V518.616Z" fill="white"/>
<path d="M284.535 526.536C286.224 528.565 292.058 531.363 298.017 534.214C299.695 535.001 302.867 535.951 304.177 537.421C306.405 539.926 305.687 543.253 300.861 544.898C294.158 547.182 292.441 545.844 283.076 545.844C279.009 545.844 266.128 539.502 266.355 535.576C266.639 530.828 268.448 530.332 269.58 526.536H284.535Z" fill="#806223"/>
<g opacity="0.3">
<path d="M304.177 537.421C304.007 537.23 303.802 537.049 303.577 536.875C303.857 538.833 302.533 540.831 299.125 541.995C292.422 544.279 290.703 542.941 281.34 542.941C278.234 542.941 270 539.24 266.379 535.743C266.502 539.68 279.065 545.844 283.076 545.844C292.439 545.844 294.158 547.183 300.861 544.899C305.687 543.252 306.405 539.925 304.177 537.421Z" fill="#505285"/>
</g>
<path d="M202.743 333.84C196.113 375.623 202.738 380.701 204.032 428.234C204.032 442.095 203.693 509.112 207.569 522.974C210.155 523.966 224.711 523.966 227.298 522.974C229.984 502.19 235.007 452.988 231.129 428.234C232.31 403.369 237.705 383.268 239.812 362.56C242.396 362.56 249.782 361.568 252.363 362.56C253.013 385.144 256.452 404.469 259.48 428.234C262.779 454.138 261.499 500.246 268.916 522.974C270.687 522.974 285.428 522.974 285.428 522.974C289.555 499.478 286.087 451.996 286.087 428.234C287.377 396.545 294.056 354.041 285.808 332.318L202.743 333.84Z" fill="#505285"/>
<path d="M198.649 296.948C196.712 302.146 196.682 329.382 201.528 333.84C207.342 339.037 217.491 339.111 226.213 338.367C246.564 336.883 281.252 339.297 286.723 335.647C292.193 331.998 293.239 292.029 280.638 283.119L198.649 296.948Z" fill="#01AA5A"/>
<path d="M206.676 139.073C206.676 109.781 223.426 101.688 244.087 101.688C264.745 101.688 281.493 109.781 281.493 139.073C281.493 156.951 264.745 181.386 244.087 181.386C223.426 181.384 206.676 158.739 206.676 139.073Z" fill="#FFA4D3"/>
<path d="M256.435 195.628C256.435 195.628 251.749 200.128 244.087 200.128C236.425 200.128 231.738 195.628 231.738 195.628L235.295 169.601H252.883L256.435 195.628Z" fill="#FFA4D3"/>
<path d="M290.452 140.681C289.314 146.059 286.767 150.177 282.677 149.575C278.586 148.97 274.499 143.873 275.635 138.496C276.769 133.119 281.006 129.249 285.098 129.851C289.186 130.456 291.583 135.304 290.452 140.681Z" fill="#FFA4D3"/>
<path d="M197.721 140.681C198.857 146.059 201.403 150.177 205.494 149.575C209.585 148.97 213.674 143.873 212.536 138.496C211.406 133.119 207.167 129.249 203.08 129.851C198.983 130.456 196.592 135.304 197.721 140.681Z" fill="#FFA4D3"/>
<path d="M286.333 140.293C285.648 143.518 284.124 145.986 281.67 145.627C279.217 145.264 281.037 142.208 281.717 138.983C282.398 135.76 280.664 133.438 283.121 133.801C285.572 134.162 287.011 137.069 286.333 140.293Z" fill="#FF8AC7"/>
<path d="M201.841 140.293C202.523 143.518 204.047 145.987 206.503 145.627C208.955 145.264 207.136 142.208 206.454 138.984C205.776 135.761 207.505 133.44 205.053 133.801C202.599 134.162 201.163 137.069 201.841 140.293Z" fill="#FF8AC7"/>
<path d="M248.478 139.071C248.478 141.196 246.513 142.919 244.089 142.919C241.666 142.919 239.701 141.196 239.701 139.071C239.701 136.946 241.666 135.222 244.089 135.222C246.513 135.222 248.478 136.946 248.478 139.071Z" fill="#FF8AC7"/>
<path d="M232.352 132.671C232.352 134.796 231.122 136.519 229.605 136.519C228.089 136.519 226.858 134.796 226.858 132.671C226.858 130.546 228.089 128.824 229.605 128.824C231.122 128.823 232.352 130.546 232.352 132.671Z" fill="#4D3B15"/>
<path d="M261.733 132.671C261.733 134.796 260.502 136.519 258.984 136.519C257.469 136.519 256.239 134.796 256.239 132.671C256.239 130.546 257.469 128.824 258.984 128.824C260.502 128.823 261.733 130.546 261.733 132.671Z" fill="#4D3B15"/>
<path d="M221.863 132.349C221.863 128.292 225.796 125.004 230.645 125.004" stroke="#4D3B15" stroke-width="0.6753" stroke-miterlimit="10" stroke-linecap="round"/>
<path d="M266.728 132.349C266.728 128.292 262.794 125.004 257.947 125.004" stroke="#4D3B15" stroke-width="0.6753" stroke-miterlimit="10" stroke-linecap="round"/>
<path d="M209.41 115.716C205.627 123.133 207.308 135.575 208.943 140.459C210.941 133.177 212.483 129.522 216.919 125.616C216.919 126.2 217.68 129.01 217.68 129.79C225.838 110.361 264.294 115.37 270.328 119.828C275.439 123.606 277.232 130.949 279.859 138.286C285.097 129.854 278.094 108.356 267.822 107.769L223.602 108.428L209.41 115.716Z" fill="#4D3B15"/>
<path d="M249.018 91.4885C249.018 89.6101 246.815 88.0842 244.085 88.0842C241.361 88.0842 239.153 89.6087 239.153 91.4885C239.153 93.3669 241.361 94.8914 244.085 94.8914C246.815 94.8928 249.018 93.3684 249.018 91.4885Z" fill="#B88D33"/>
<path d="M244.087 114.537C262.116 114.537 278.094 118.663 288.017 125.016L276.894 124.372C276.894 124.372 267.978 119.365 244.087 119.365C220.196 119.365 211.667 124.317 211.667 124.317L200.157 125.016C210.077 118.665 226.056 114.537 244.087 114.537Z" fill="#856625"/>
<path d="M244.087 113.137C229.965 113.137 217.116 115.677 207.436 119.827C208.263 117.362 209 114.74 209 112.022C209 97.5879 224.711 91.4885 244.084 91.4885C263.464 91.4885 279.169 97.5879 279.169 112.022C279.169 114.74 279.911 117.362 280.733 119.825C271.054 115.676 258.211 113.137 244.087 113.137Z" fill="#01AA5A"/>
<path opacity="0.5" d="M223.622 115.027C223.481 114.475 223.396 113.916 223.396 113.348C223.396 104.893 239.412 98.0391 259.17 98.0391C264.185 98.0391 268.953 98.4844 273.283 99.2807C276.999 102.456 279.172 106.662 279.172 112.022C279.172 114.74 279.915 117.363 280.737 119.825C271.056 115.676 258.213 113.137 244.087 113.137C236.842 113.137 229.941 113.816 223.622 115.027Z" fill="white"/>
<path d="M200.156 123.618C210.077 117.265 226.056 113.137 244.085 113.137C262.115 113.137 278.092 117.264 288.015 123.618" stroke="#B88D33" stroke-width="3.1957" stroke-miterlimit="10" stroke-linecap="round"/>
<path d="M206.08 152.753C206.08 150.177 208.298 145.27 208.298 145.27L244.089 139.072L279.214 144.205C279.214 144.205 282.1 149.792 282.1 152.754C282.1 170.313 265.082 184.546 244.089 184.546C223.096 184.545 206.08 170.311 206.08 152.753Z" fill="#DCE0FF"/>
<path d="M210.943 150.509H240.733" stroke="white" stroke-width="1.9294" stroke-miterlimit="10" stroke-linecap="round"/>
<path d="M210.943 156.868H240.733" stroke="white" stroke-width="1.9294" stroke-miterlimit="10" stroke-linecap="round"/>
<path d="M212.524 163.226H240.733" stroke="white" stroke-width="1.9294" stroke-miterlimit="10" stroke-linecap="round"/>
<path d="M217.273 169.583H240.733" stroke="white" stroke-width="1.9294" stroke-miterlimit="10" stroke-linecap="round"/>
<path d="M223.602 175.942H240.733" stroke="white" stroke-width="1.9294" stroke-miterlimit="10" stroke-linecap="round"/>
<path d="M247.439 150.509H277.232" stroke="white" stroke-width="1.9294" stroke-miterlimit="10" stroke-linecap="round"/>
<path d="M247.439 156.868H277.232" stroke="white" stroke-width="1.9294" stroke-miterlimit="10" stroke-linecap="round"/>
<path d="M247.439 163.226H275.65" stroke="white" stroke-width="1.9294" stroke-miterlimit="10" stroke-linecap="round"/>
<path d="M247.439 169.583H270.9" stroke="white" stroke-width="1.9294" stroke-miterlimit="10" stroke-linecap="round"/>
<path d="M247.439 175.942H264.574" stroke="white" stroke-width="1.9294" stroke-miterlimit="10" stroke-linecap="round"/>
<path d="M211.281 145.268C211.281 143.896 209.952 142.79 208.312 142.79C206.676 142.79 205.348 143.898 205.348 145.268C205.348 146.638 206.676 147.747 208.312 147.747C209.952 147.747 211.281 146.638 211.281 145.268Z" fill="white"/>
<path d="M282.825 145.268C282.825 143.896 281.5 142.79 279.861 142.79C278.226 142.79 276.899 143.898 276.899 145.268C276.899 146.638 278.226 147.747 279.861 147.747C281.5 147.747 282.825 146.638 282.825 145.268Z" fill="white"/>
<path d="M208.315 145.268L206.5 129.777" stroke="white" stroke-width="1.0449" stroke-miterlimit="10" stroke-linecap="round"/>
<path d="M280.173 145.268L281.984 129.777" stroke="white" stroke-width="1.0449" stroke-miterlimit="10" stroke-linecap="round"/>
<path opacity="0.3" d="M247.559 181.642C226.568 181.642 209.55 167.409 209.55 149.85C209.55 148.477 210.181 146.443 210.769 144.84L208.296 145.268C208.296 145.268 206.078 150.175 206.078 152.751C206.078 170.31 223.096 184.543 244.087 184.543C255.466 184.543 265.666 180.357 272.633 173.733C265.94 178.653 257.17 181.642 247.559 181.642Z" fill="#505285"/>
<g opacity="0.3">
<path d="M195.546 207.556C201.331 199.276 228.762 203.468 244.653 203.911C254.716 203.911 278.196 199.845 287.2 203.832C315.272 216.679 240.943 224.61 235.118 225.497C235.118 225.497 179.617 230.352 195.546 207.556Z" fill="#505285"/>
</g>
<path d="M306.688 215.488H181.488V313.394H306.688V215.488Z" fill="#BF8F5A"/>
<path d="M286.482 205.268H201.692L181.488 215.488H306.688L286.482 205.268Z" fill="#FDEF47"/>
<path d="M223.823 248.792L231.87 242.064L239.909 248.792" stroke="white" stroke-width="1.1319" stroke-miterlimit="10"/>
<path d="M231.87 242.064V263.162" stroke="white" stroke-width="1.1319" stroke-miterlimit="10"/>
<path d="M248.261 248.792L256.305 242.064L264.352 248.792" stroke="white" stroke-width="1.1319" stroke-miterlimit="10"/>
<path d="M256.305 242.064V263.162" stroke="white" stroke-width="1.1319" stroke-miterlimit="10"/>
<path d="M225.028 269.023H263.15" stroke="white" stroke-width="1.1319" stroke-miterlimit="10"/>
<path d="M276.025 297.153H212.148V306.781H276.025V297.153Z" fill="white"/>
<path d="M248.69 205.268H239.479L228.212 215.488H259.959L248.69 205.268Z" fill="#BF8F5A"/>
<path d="M259.959 215.488H228.212V225.494H259.959V215.488Z" fill="#D88D33"/>
<path opacity="0.35" d="M306.688 299.605C306.688 299.605 306.046 232.371 296.272 224.196C286.498 216.021 197.972 215.488 197.972 215.488H306.686V299.605H306.688Z" fill="white"/>
<path opacity="0.3" d="M181.488 229.277C181.488 229.277 182.486 296.804 191.904 304.681C201.323 312.561 290.204 313.395 290.204 313.395H181.49V229.277H181.488Z" fill="#505285"/>
<path d="M309.187 278.785C303.16 278.689 287.002 277.995 287.204 281.516C287.452 285.843 298.549 285.426 301.449 285.83C295.936 285.843 286.588 284.605 285.972 288.002C285.378 291.302 298.204 291.719 301.107 292.123C297.72 292.123 284.85 290.974 285.334 295.831C285.815 299.875 298.549 298.778 301.931 299.183C284.236 299.537 291.869 305.397 308.861 303.546C319.313 302.403 319.573 278.953 309.187 278.785Z" fill="#DCE0FF"/>
<g opacity="0.2">
<g opacity="0.3">
<path d="M289.978 290.705C289.576 290.341 289.358 289.931 289.443 289.455C290.056 286.058 296.574 287.117 293.086 285.623C289.439 285.646 286.319 286.088 285.971 288.003C285.742 289.284 287.535 290.125 289.978 290.705Z" fill="#505285"/>
</g>
<g opacity="0.3">
<path d="M291.723 284.834C291.113 284.336 290.719 283.729 290.676 282.967C290.474 279.445 306.632 280.139 312.659 280.236C312.82 280.239 312.973 280.263 313.129 280.276C312.05 279.363 310.741 278.808 309.188 278.784C303.162 278.688 287.004 277.995 287.205 281.515C287.306 283.302 289.264 284.274 291.723 284.834Z" fill="#505285"/>
</g>
<g opacity="0.3">
<path d="M288.806 297.283C288.322 292.428 296.952 293.058 293.084 292.067C288.986 292.276 285.064 293.11 285.334 295.831C285.502 297.247 287.186 298.026 289.432 298.465C289.092 298.129 288.86 297.743 288.806 297.283Z" fill="#505285"/>
</g>
<g opacity="0.3">
<path d="M293.778 300.071C290.513 301.017 291.555 302.476 295.49 303.295C292.63 301.725 295.851 301.363 293.778 300.071Z" fill="#505285"/>
</g>
</g>
<g opacity="0.3">
<path d="M286.723 335.647C281.254 339.297 246.565 336.883 226.213 338.367C218.008 339.066 208.542 339.04 202.61 334.709C202.284 336.792 201.991 338.79 201.729 340.701C206.69 342.164 211.846 343.236 216.409 343.084C224.282 342.798 233.184 342.798 241.058 342.225C250.986 341.652 261.254 341.652 271.183 341.367C274.854 341.367 282.266 341.776 288.194 341.143C287.825 339.168 287.377 337.299 286.86 335.525C286.815 335.562 286.772 335.617 286.723 335.647Z" fill="#505285"/>
</g>
<g opacity="0.3">
<path d="M262.98 410.746C262.98 399.266 263.453 388.181 262.508 377.098C262.508 372.347 261.99 363.876 258.204 359.917C253.471 355.562 247.363 359.283 240.737 358.492C240.265 359.284 239.79 360.471 239.79 361.66L239.816 362.561C242.402 362.561 249.784 361.569 252.365 362.561C253.015 385.145 256.454 404.47 259.482 428.235C261.752 446.057 261.854 473.441 264.112 496.195C267.447 490.397 268.394 480.891 267.716 474.085C265.347 453.896 262.98 431.33 262.98 410.746Z" fill="#505285"/>
</g>
<path d="M175.511 278.785C181.542 278.689 197.704 277.996 197.499 281.516C197.254 285.843 186.157 285.427 183.252 285.83C188.769 285.843 198.115 284.606 198.732 288.003C199.329 291.303 186.499 291.719 183.597 292.124C186.983 292.124 199.852 290.975 199.372 295.831C198.886 299.875 186.157 298.779 182.77 299.183C200.468 299.537 192.834 305.397 175.845 303.546C165.39 302.403 165.129 278.953 175.511 278.785Z" fill="#DCE0FF"/>
<g opacity="0.3">
<path d="M178.983 280.236C183.141 280.169 192.113 279.82 197.22 280.764C195.168 278.11 181.064 278.697 175.511 278.785C165.15 278.954 165.393 302.308 175.785 303.537C168.974 298.189 169.939 280.382 178.983 280.236Z" fill="#505285"/>
</g>
<g opacity="0.3">
<path d="M88.199 53.5293V545.834H107.083V71.7417H376.827V545.834H395.706V53.5293H88.199Z" fill="#A0E1C3"/>
<path d="M565.135 599.362C508.658 581.27 452.183 563.182 395.708 545.091C395.708 381.486 395.708 217.877 395.708 54.2688C452.183 36.1782 508.658 18.0891 565.135 0C565.135 199.787 565.135 399.575 565.135 599.362Z" fill="#A0E1C3"/>
<path d="M426.714 189.998C462.519 185.07 498.32 180.146 534.125 175.218C534.125 154.59 534.125 133.962 534.125 113.333C534.125 79.8891 510.082 59.6213 480.42 68.0632C450.757 76.5051 426.712 106.68 426.712 135.46C426.714 153.639 426.714 171.818 426.714 189.998Z" fill="#01AA5A" fill-opacity="0.17"/>
<path d="M426.714 230.695C426.714 271.97 426.714 313.245 426.714 354.526C462.519 356.989 498.32 359.454 534.125 361.915C534.125 315.076 534.125 268.238 534.125 221.4C498.32 224.498 462.52 227.597 426.714 230.695Z" fill="#01AA5A" fill-opacity="0.17"/>
<path d="M426.714 395.226C426.714 436.5 426.714 477.774 426.714 519.052C462.519 528.902 498.32 538.758 534.125 548.609C534.125 501.772 534.125 454.936 534.125 408.098C498.32 403.807 462.52 399.515 426.714 395.226Z" fill="#01AA5A" fill-opacity="0.17"/>
<path d="M538.125 302.081C538.125 293.383 543.098 286.246 549.246 286.135C555.397 286.024 560.368 293.188 560.368 302.139C560.368 311.09 555.397 318.231 549.246 318.086C543.098 317.942 538.125 310.776 538.125 302.081Z" fill="#01AA5A" fill-opacity="0.17"/>
<path d="M565.135 599.362L579.273 598.091V1.64631L565.135 0V599.362Z" fill="#A0E1C3"/>
<path d="M107.083 293.725V71.7417H376.827L132.441 92.9523L107.083 293.725Z" fill="#01AA5A" fill-opacity="0.17"/>
<path d="M96.6516 63.4275V545.834H107.083V71.7417H376.827V545.834H387.257V63.4275H96.6516Z" fill="white"/>
</g>
<path opacity="0.3" d="M0.351501 584.389C0.351501 574.11 49.5499 565.776 110.236 565.776C170.922 565.776 220.122 574.11 220.122 584.389C220.122 594.668 170.92 603 110.236 603C49.5482 603 0.351501 594.668 0.351501 584.389Z" fill="#ABB4FF"/>
<path d="M179.492 476.644H37.5491V587.642H179.492V476.644Z" fill="#BF8F5A"/>
<path d="M156.583 465.055H60.4565L37.549 476.644H179.492L156.583 465.055Z" fill="#FDEF47"/>
<path d="M85.5456 514.399L94.6677 506.773L103.785 514.399" stroke="white" stroke-width="1.2832" stroke-miterlimit="10"/>
<path d="M94.6677 506.773V530.693" stroke="white" stroke-width="1.2832" stroke-miterlimit="10"/>
<path d="M113.252 514.399L122.372 506.773L131.494 514.399" stroke="white" stroke-width="1.2832" stroke-miterlimit="10"/>
<path d="M122.372 506.773V530.693" stroke="white" stroke-width="1.2832" stroke-miterlimit="10"/>
<path d="M86.9122 537.336H130.133" stroke="white" stroke-width="1.2832" stroke-miterlimit="10"/>
<path d="M144.728 569.226H72.3082V580.141H144.728V569.226Z" fill="white"/>
<path d="M113.737 465.055H103.295L90.5228 476.644H126.515L113.737 465.055Z" fill="#BF8F5A"/>
<path d="M126.515 476.644H90.5228V487.987H126.515V476.644Z" fill="#D88D33"/>
<path opacity="0.35" d="M179.492 572.008C179.492 572.008 178.764 495.784 167.682 486.515C156.602 477.246 56.2388 476.644 56.2388 476.644H179.492V572.008Z" fill="white"/>
<path opacity="0.3" d="M37.5491 492.276C37.5491 492.276 38.6798 568.833 49.3574 577.763C60.0351 586.696 160.801 587.642 160.801 587.642H37.5491V492.276Z" fill="#505285"/>
<path d="M152.903 397.888H62.574V468.524H152.903V397.888Z" fill="#BF8F5A"/>
<path d="M138.323 390.513H77.1519L62.574 397.888H152.903L138.323 390.513Z" fill="#FDEF47"/>
<path d="M93.119 421.913L98.9252 417.061L104.724 421.913" stroke="white" stroke-width="0.8166" stroke-miterlimit="10"/>
<path d="M98.9253 417.061V432.285" stroke="white" stroke-width="0.8166" stroke-miterlimit="10"/>
<path d="M110.749 421.913L116.554 417.061L122.358 421.913" stroke="white" stroke-width="0.8166" stroke-miterlimit="10"/>
<path d="M116.554 417.061V432.285" stroke="white" stroke-width="0.8166" stroke-miterlimit="10"/>
<path d="M93.9879 436.51H121.493" stroke="white" stroke-width="0.8166" stroke-miterlimit="10"/>
<path d="M130.78 456.805H84.6942V463.753H130.78V456.805Z" fill="white"/>
<path d="M111.058 390.513H104.416L96.2856 397.888H119.19L111.058 390.513Z" fill="#BF8F5A"/>
<path d="M119.19 397.888H96.2856V405.107H119.19V397.888Z" fill="#D88D33"/>
<path opacity="0.35" d="M152.903 458.575C152.903 458.575 152.44 410.069 145.387 404.169C138.336 398.273 74.4673 397.888 74.4673 397.888H152.903V458.575Z" fill="white"/>
<path opacity="0.3" d="M62.574 407.835C62.574 407.835 63.2937 456.553 70.0884 462.238C76.8814 467.921 141.008 468.524 141.008 468.524H62.574V407.835Z" fill="#505285"/>
<path d="M186.688 467.488H61.4885V565.394H186.688V467.488Z" fill="#BF8F5A"/>
<path d="M166.482 457.268H81.6923L61.4885 467.488H186.688L166.482 457.268Z" fill="#FDEF47"/>
<path d="M103.823 500.792L111.87 494.064L119.91 500.792" stroke="white" stroke-width="1.1319" stroke-miterlimit="10"/>
<path d="M111.87 494.064V515.162" stroke="white" stroke-width="1.1319" stroke-miterlimit="10"/>
<path d="M128.262 500.792L136.305 494.064L144.352 500.792" stroke="white" stroke-width="1.1319" stroke-miterlimit="10"/>
<path d="M136.305 494.064V515.162" stroke="white" stroke-width="1.1319" stroke-miterlimit="10"/>
<path d="M105.028 521.023H143.15" stroke="white" stroke-width="1.1319" stroke-miterlimit="10"/>
<path d="M156.025 549.153H92.148V558.781H156.025V549.153Z" fill="white"/>
<path d="M128.69 457.268H119.479L108.212 467.488H139.959L128.69 457.268Z" fill="#BF8F5A"/>
<path d="M139.959 467.488H108.212V477.494H139.959V467.488Z" fill="#D88D33"/>
<path opacity="0.35" d="M186.688 551.605C186.688 551.605 186.046 484.371 176.272 476.196C166.498 468.021 77.9724 467.488 77.9724 467.488H186.686V551.605H186.688Z" fill="white"/>
<path opacity="0.3" d="M61.4885 481.277C61.4885 481.277 62.4857 548.804 71.9043 556.681C81.3229 564.561 170.204 565.395 170.204 565.395H61.4902V481.277H61.4885Z" fill="#505285"/>
<path opacity="0.3" d="M255.29 584.389C255.29 574.11 304.489 565.776 365.177 565.776C425.861 565.776 475.063 574.11 475.063 584.389C475.063 594.668 425.861 603 365.177 603C304.491 603 255.29 594.668 255.29 584.389Z" fill="#ABB4FF"/>
<path d="M434.436 476.644H292.49V587.642H434.436V476.644Z" fill="#BF8F5A"/>
<path d="M411.524 465.055H315.397L292.49 476.644H434.435L411.524 465.055Z" fill="#FDEF47"/>
<path d="M340.484 514.399L349.61 506.773L358.725 514.399" stroke="white" stroke-width="1.2832" stroke-miterlimit="10"/>
<path d="M349.61 506.773V530.693" stroke="white" stroke-width="1.2832" stroke-miterlimit="10"/>
<path d="M368.192 514.399L377.314 506.773L386.436 514.399" stroke="white" stroke-width="1.2832" stroke-miterlimit="10"/>
<path d="M377.314 506.773V530.693" stroke="white" stroke-width="1.2832" stroke-miterlimit="10"/>
<path d="M341.854 537.336H385.073" stroke="white" stroke-width="1.2832" stroke-miterlimit="10"/>
<path d="M399.67 569.226H327.249V580.141H399.67V569.226Z" fill="white"/>
<path d="M368.68 465.055H358.238L345.465 476.644H381.456L368.68 465.055Z" fill="#BF8F5A"/>
<path d="M381.457 476.644H345.465V487.987H381.457V476.644Z" fill="#D88D33"/>
<path opacity="0.35" d="M434.435 572.008C434.435 572.008 433.706 495.784 422.623 486.515C411.543 477.246 311.178 476.644 311.178 476.644H434.433L434.435 572.008Z" fill="white"/>
<path opacity="0.3" d="M292.49 492.276C292.49 492.276 293.62 568.833 304.301 577.763C314.977 586.696 415.743 587.642 415.743 587.642H292.491V492.276H292.49Z" fill="#505285"/>
<path d="M407.846 397.888H317.516V468.524H407.846V397.888Z" fill="#BF8F5A"/>
<path d="M393.264 390.513H332.093L317.516 397.888H407.846L393.264 390.513Z" fill="#FDEF47"/>
<path d="M348.06 421.912L353.864 417.061L359.663 421.912" stroke="white" stroke-width="0.8166" stroke-miterlimit="10"/>
<path d="M353.864 417.061V432.285" stroke="white" stroke-width="0.8166" stroke-miterlimit="10"/>
<path d="M365.69 421.912L371.494 417.061L377.301 421.912" stroke="white" stroke-width="0.8166" stroke-miterlimit="10"/>
<path d="M371.494 417.061V432.285" stroke="white" stroke-width="0.8166" stroke-miterlimit="10"/>
<path d="M348.93 436.51H376.434" stroke="white" stroke-width="0.8166" stroke-miterlimit="10"/>
<path d="M385.72 456.805H339.635V463.753H385.72V456.805Z" fill="white"/>
<path d="M366 390.513H359.355L351.226 397.888H374.13L366 390.513Z" fill="#BF8F5A"/>
<path d="M374.13 397.888H351.226V405.107H374.13V397.888Z" fill="#D88D33"/>
<path opacity="0.35" d="M407.846 458.575C407.846 458.575 407.381 410.069 400.329 404.169C393.278 398.273 329.41 397.888 329.41 397.888H407.846V458.575Z" fill="white"/>
<path opacity="0.3" d="M317.516 407.835C317.516 407.835 318.234 456.553 325.029 462.238C331.824 467.921 395.95 468.524 395.95 468.524H317.516V407.835Z" fill="#505285"/>
</svg>
