<svg width="350" height="350" viewBox="0 0 558 503" fill="none" xmlns="http://www.w3.org/2000/svg">
<g clip-path="url(#clip0_61_3217)">
<path d="M37.3396 255.184C36.2316 250.525 36.0461 244.746 40.3794 242.009C45.3064 238.898 51.9641 242.082 56.8744 245.215C51.8613 237.498 48.4424 228.946 46.8448 220.124C46.3171 217.208 45.9985 214.151 47.0584 211.356C48.1193 208.56 50.8964 206.099 54.1789 206.06C59.0478 206.001 62.0686 210.733 66.3193 212.87C63.4829 205.468 62.1279 197.61 62.3381 189.783C62.4286 186.395 63.4572 182.261 67.0784 181.328C70.6403 180.412 73.8915 183.297 76.2158 185.893C76.0481 175.349 76.2415 163.826 83.693 155.688C85.0133 154.246 86.7015 152.88 88.7676 152.699C93.3581 152.297 95.7584 157.432 96.5399 161.521C98.3813 171.156 99.4355 180.913 99.6927 190.686C101.126 186.73 108.383 187.423 110.652 191.048C112.923 194.674 111.725 199.203 110.257 203.15C107.219 211.318 103.264 219.21 98.4707 226.667C101.265 224.952 105.38 226.065 107.464 228.463C109.548 230.86 109.955 234.128 109.614 237.156C108.68 245.433 102.962 252.55 97.4433 259.223C99.9722 256.277 105.482 256.627 108.414 259.252C111.347 261.877 112.063 265.965 111.519 269.655C110.149 278.931 102.168 286.254 93.8288 291.844C87.6786 295.965 79.4703 300.714 71.4755 300.676C64.9542 300.645 62.4007 296.426 58.4083 292.277C48.1171 281.582 40.6421 269.079 37.3396 255.184Z" fill="#A0E1C3"/>
<path d="M118.061 202.574C116.579 196.34 116.331 188.606 122.13 184.943C128.724 180.779 137.634 185.041 144.205 189.235C137.496 178.907 132.92 167.462 130.782 155.655C130.075 151.753 129.649 147.663 131.068 143.92C132.488 140.179 136.204 136.885 140.597 136.833C147.113 136.755 151.155 143.087 156.845 145.946C153.049 136.041 151.236 125.524 151.518 115.049C151.639 110.515 153.015 104.983 157.861 103.736C162.628 102.508 166.978 106.37 170.09 109.844C169.865 95.7329 170.124 80.3129 180.097 69.421C181.863 67.4915 184.123 65.6636 186.889 65.4211C193.032 64.8829 196.244 71.7549 197.29 77.2285C199.754 90.1224 201.165 103.18 201.509 116.259C203.427 110.965 213.138 111.892 216.177 116.743C219.216 121.595 217.611 127.655 215.647 132.937C211.583 143.869 206.29 154.431 199.874 164.41C203.613 162.114 209.121 163.605 211.91 166.813C214.698 170.021 215.244 174.395 214.786 178.447C213.537 189.522 205.885 199.048 198.498 207.978C201.882 204.037 209.256 204.504 213.18 208.017C217.104 211.53 218.064 217.001 217.334 221.939C215.501 234.351 204.819 244.153 193.659 251.633C185.429 257.149 174.444 263.505 163.744 263.452C155.017 263.41 151.599 257.763 146.256 252.212C132.485 237.902 122.483 221.169 118.061 202.574Z" fill="#A0E1C3"/>
<path d="M407.623 221.688C406.141 215.454 405.893 207.72 411.692 204.057C418.286 199.893 427.196 204.155 433.767 208.349C427.058 198.021 422.482 186.576 420.344 174.769C419.637 170.867 419.211 166.777 420.63 163.034C422.049 159.293 425.766 155.999 430.159 155.947C436.675 155.869 440.717 162.201 446.407 165.06C442.611 155.155 440.798 144.638 441.08 134.163C441.201 129.629 442.577 124.097 447.423 122.85C452.19 121.622 456.54 125.484 459.652 128.958C459.427 114.847 459.686 99.4269 469.659 88.535C471.425 86.6055 473.685 84.7776 476.451 84.5351C482.594 83.9969 485.806 90.8689 486.852 96.3425C489.316 109.236 490.727 122.294 491.071 135.373C492.989 130.079 502.7 131.006 505.739 135.857C508.778 140.709 507.173 146.77 505.209 152.051C501.144 162.983 495.852 173.545 489.436 183.524C493.175 181.228 498.683 182.719 501.472 185.927C504.26 189.135 504.806 193.509 504.348 197.561C503.099 208.636 495.447 218.162 488.06 227.092C491.444 223.151 498.818 223.618 502.742 227.131C506.666 230.644 507.626 236.115 506.896 241.053C505.063 253.465 494.381 263.267 483.221 270.747C474.991 276.263 464.006 282.619 453.306 282.567C444.579 282.525 441.161 276.878 435.818 271.327C422.047 257.016 412.045 240.283 407.623 221.688Z" fill="#A0E1C3"/>
<path d="M534.522 359.142H40.366C34.8319 359.142 30.304 355.068 30.304 350.088C30.304 345.108 34.8319 341.034 40.366 341.034H534.522C540.056 341.034 544.584 345.108 544.584 350.088C544.584 355.068 540.056 359.142 534.522 359.142Z" fill="#01AA5A" fill-opacity="0.24"/>
<path d="M373.455 292.43H163.856V184.503C163.856 172.646 174.538 163.033 187.716 163.033H349.595C362.773 163.033 373.455 172.646 373.455 184.503V292.43Z" fill="#BF8F5A"/>
<path d="M158.39 179.569L89.8956 187.176C88.3371 187.349 86.9396 188.14 86.0687 189.341L43.7614 247.734C41.967 250.211 41.0223 253.128 41.0502 256.105L41.6707 321.727H373.59V274.119H164.719L164.407 184.461C164.396 181.503 161.582 179.215 158.39 179.569Z" fill="#01AA5A"/>
<path d="M372.098 327.221H45.1521C41.048 327.221 37.6906 324.2 37.6906 320.507C37.6906 316.814 41.048 313.792 45.1521 313.792H372.099C376.203 313.792 379.56 316.814 379.56 320.507C379.559 324.2 376.202 327.221 372.098 327.221Z" fill="#27A080"/>
<path d="M120.444 355.296C137.302 355.296 150.967 342.999 150.967 327.83C150.967 312.661 137.302 300.365 120.444 300.365C103.586 300.365 89.9202 312.661 89.9202 327.83C89.9202 342.999 103.586 355.296 120.444 355.296Z" fill="#282F39"/>
<path d="M132.322 330.356C133.878 324.452 129.821 318.53 123.26 317.13C116.699 315.73 110.118 319.38 108.562 325.284C107.006 331.188 111.063 337.109 117.624 338.51C124.185 339.91 130.766 336.259 132.322 330.356Z" fill="#F2F2F2"/>
<path d="M302.91 355.296C319.768 355.296 333.434 342.999 333.434 327.83C333.434 312.661 319.768 300.365 302.91 300.365C286.053 300.365 272.387 312.661 272.387 327.83C272.387 342.999 286.053 355.296 302.91 355.296Z" fill="#282F39"/>
<path d="M314.743 330.439C316.348 324.546 312.341 318.597 305.792 317.153C299.243 315.708 292.632 319.314 291.027 325.207C289.421 331.1 293.429 337.048 299.978 338.493C306.527 339.938 313.137 336.332 314.743 330.439Z" fill="#F2F2F2"/>
<path d="M372.438 280.222H164.196C159.906 280.222 156.395 277.063 156.395 273.203C156.395 269.343 159.906 266.185 164.196 266.185H372.438C376.727 266.185 380.238 269.343 380.238 273.203C380.238 277.064 376.727 280.222 372.438 280.222Z" fill="#27A080"/>
<path d="M152.51 320.034C150.043 320.854 147.237 319.985 145.95 317.92C140.911 309.841 131.284 304.638 120.784 304.638C110.282 304.638 100.656 309.841 95.6176 317.92C94.3307 319.985 91.5246 320.854 89.0571 320.034C85.9323 318.995 84.5605 315.681 86.1995 313.07C93.149 301.997 106.368 294.872 120.785 294.872C135.201 294.872 148.42 301.997 155.37 313.07C157.007 315.68 155.636 318.995 152.51 320.034Z" fill="#37BB9B"/>
<path d="M334.977 320.034C332.509 320.854 329.703 319.985 328.416 317.92C323.378 309.841 313.751 304.638 303.25 304.638C292.749 304.638 283.123 309.841 278.084 317.92C276.797 319.985 273.991 320.854 271.524 320.034C268.399 318.995 267.027 315.681 268.665 313.07C275.614 301.997 288.834 294.872 303.25 294.872C317.667 294.872 330.885 301.997 337.836 313.07C339.473 315.68 338.102 318.995 334.977 320.034Z" fill="#37BB9B"/>
<path d="M312.745 206.98H214.472C213.166 206.98 212.098 206.018 212.098 204.843C212.098 203.668 213.166 202.706 214.472 202.706H312.747C314.052 202.706 315.121 203.668 315.121 204.843C315.12 206.019 314.051 206.98 312.745 206.98Z" fill="white"/>
<path d="M312.745 237.498H214.472C213.166 237.498 212.098 236.536 212.098 235.362C212.098 234.187 213.166 233.225 214.472 233.225H312.747C314.052 233.225 315.121 234.187 315.121 235.362C315.12 236.536 314.051 237.498 312.745 237.498Z" fill="white"/>
<path d="M285.532 222.239H187.258C185.952 222.239 184.884 221.278 184.884 220.103C184.884 218.928 185.953 217.966 187.258 217.966H285.532C286.838 217.966 287.907 218.928 287.907 220.103C287.907 221.278 286.838 222.239 285.532 222.239Z" fill="white"/>
<path d="M43.7949 300.975C40.0641 300.975 37.012 298.229 37.012 294.872V279.613C37.012 276.256 40.0641 273.509 43.7949 273.509C47.5257 273.509 50.5778 276.256 50.5778 279.613V294.872C50.5778 298.229 47.5257 300.975 43.7949 300.975Z" fill="white"/>
<path d="M372.776 307.079C369.046 307.079 365.994 304.332 365.994 300.975V291.209C365.994 287.852 369.046 285.105 372.776 285.105C376.507 285.105 379.559 287.852 379.559 291.209V300.975C379.559 304.332 376.507 307.079 372.776 307.079Z" fill="#F16C5F"/>
<path d="M140.794 260.691H131.976C130.483 260.691 129.263 259.592 129.263 258.249C129.263 256.906 130.483 255.808 131.976 255.808H140.794C142.286 255.808 143.507 256.906 143.507 258.249C143.507 259.592 142.286 260.691 140.794 260.691Z" fill="#F2F2F2"/>
<path d="M146.898 202.5V243.943C146.898 247.477 143.744 250.357 139.817 250.413L111.266 250.809L106.396 250.876L96.3845 251.017L82.0786 251.218L72.8674 251.346C67.1153 251.426 63.588 245.7 66.715 241.354L94.8104 202.285C96.0044 200.626 97.9777 199.545 100.176 199.362L120.566 197.629L132.775 196.584L139.023 196.053C139.45 196.017 139.87 196.017 140.284 196.041C141.661 196.139 142.929 196.591 143.988 197.293C145.745 198.471 146.898 200.357 146.898 202.5Z" fill="#F6F4E7"/>
<path d="M132.777 196.585C130.803 200.309 128.252 203.904 126.197 207.273C122.48 213.371 118.634 219.388 114.611 225.334C108.737 234.02 102.667 242.577 96.3856 251.018L82.0797 251.219C89.7514 241.16 97.2398 230.98 104.498 220.683C108.636 214.811 112.767 208.927 116.864 203.032C118.112 201.244 119.34 199.437 120.568 197.631L132.777 196.585Z" fill="#E6E6E6"/>
<path d="M143.989 197.293C138.007 207.302 131.562 217.111 125.512 227.078C120.723 234.964 115.967 242.875 111.267 250.809L106.397 250.876C111.464 242.264 116.606 233.683 121.876 225.168C127.886 215.439 133.801 205.557 140.285 196.042C141.662 196.14 142.93 196.592 143.989 197.293Z" fill="#E6E6E6"/>
<path d="M67.5356 257.64C64.1783 257.64 61.4302 255.168 61.4302 252.146V242.99C61.4302 239.969 64.1772 237.497 67.5356 237.497C70.893 237.497 73.6399 239.968 73.6399 242.99V252.146C73.641 255.168 70.8941 257.64 67.5356 257.64Z" fill="#37BB9B"/>
<path d="M533.404 296.958H466.411V346.338H533.404V296.958Z" fill="white"/>
<path d="M482.193 296.958H466.411V346.338H482.193V296.958Z" fill="#F2F2F2"/>
<path d="M512.468 296.958H500.552V317.8H512.468V296.958Z" fill="#F2F2F2"/>
<path d="M508.925 323.251H489.279V336.718H508.925V323.251Z" fill="#FFCA5F"/>
<path d="M525.674 317.007H513.757V325.175H525.674V317.007Z" fill="#BBEFF2"/>
<path d="M493.156 247.664H426.163V297.044H493.156V247.664Z" fill="white"/>
<path d="M441.945 247.664H426.163V297.044H441.945V247.664Z" fill="#F2F2F2"/>
<path d="M472.22 247.664H460.304V268.506H472.22V247.664Z" fill="#F2F2F2"/>
<path d="M468.677 273.957H449.031V287.424H468.677V273.957Z" fill="#FFCA5F"/>
<path d="M485.426 267.713H473.509V275.881H485.426V267.713Z" fill="#BBEFF2"/>
<path d="M459.616 296.958H392.623V346.338H459.616V296.958Z" fill="white"/>
<path d="M408.405 296.958H392.623V346.338H408.405V296.958Z" fill="#F2F2F2"/>
<path d="M438.68 296.958H426.764V317.8H438.68V296.958Z" fill="#F2F2F2"/>
<path d="M435.137 323.251H415.491V336.718H435.137V323.251Z" fill="#FFA85A"/>
<path d="M451.886 317.007H439.969V325.175H451.886V317.007Z" fill="#BBEFF2"/>
<mask id="mask0_61_3217" style="mask-type:luminance" maskUnits="userSpaceOnUse" x="-1" y="0" width="559" height="503">
<path d="M558 0H-1V503H558V0Z" fill="white"/>
</mask>
<g mask="url(#mask0_61_3217)">
<path d="M196.024 472.262C196.024 472.262 172.597 658.064 191.338 764.56H271.769L275.673 554.589L301.754 553.833L304.097 764.56H386.556C386.556 764.56 402.173 566.674 378.748 473.017C378.748 473.017 199.729 475.845 196.024 472.262Z" fill="#282F39"/>
<path d="M433.952 413.568C427.925 382.722 419.952 352.208 411.415 321.837C407.058 306.339 402.147 290.199 390.069 278.469C377.092 265.871 357.878 260.35 339.387 256.059C335.652 255.191 331.766 254.246 327.796 253.318C326.814 253.083 325.824 252.85 324.824 252.623C322.759 252.147 320.67 251.686 318.562 251.24C306.601 248.725 294.229 246.92 282.796 248.106C275.561 248.853 268.233 250.252 260.955 252.063C259.008 252.547 257.06 253.06 255.122 253.596C254.047 253.891 252.973 254.2 251.898 254.518C242.061 257.38 232.433 260.847 223.335 264.299C217.803 266.407 212.263 268.703 207.706 272.215C202.924 275.893 199.498 280.692 196.762 285.835C194.564 288.329 192.465 290.896 190.442 293.484C164.671 326.434 147.932 364.921 135.696 404.167C132.844 413.312 130.198 422.752 131.039 432.25C131.88 441.748 136.853 451.444 145.856 455.83C151.444 458.551 157.929 458.988 164.209 459.374C166.573 459.519 168.943 459.662 171.315 459.788C170.724 475.464 170.309 491.173 169.757 506.899C215.762 514.43 307.953 524.483 408.711 507.246C406.982 492.571 405.261 477.895 403.54 463.213C403.39 461.981 403.263 460.667 403.893 459.565C404.891 457.805 418.246 455.018 420.303 454.339C428.395 451.688 433.59 444.249 435.21 436.635C436.823 429.029 435.446 421.189 433.952 413.568Z" fill="#01AA5A"/>
<path d="M318.562 251.24C310.639 260.183 302.715 269.125 294.791 278.068C293.734 279.262 292.676 280.455 291.619 281.649C290.872 282.495 290.116 283.341 289.369 284.187C288.63 283.311 287.859 282.427 287.061 281.536C286.036 280.388 284.962 279.224 283.871 278.054C276.216 269.867 267.058 261.015 260.955 252.064C268.232 250.252 275.561 248.854 282.796 248.107C294.229 246.92 306.601 248.725 318.562 251.24Z" fill="#F9CEBE"/>
<path d="M287.061 281.535C275.259 280.387 263.205 285.818 257.287 295.115C256.347 296.596 254.105 295.81 253.963 294.299C253.216 286.656 252.621 279.012 252.301 271.346C252.074 265.916 251.487 260.092 251.898 254.518C252.973 254.201 254.047 253.891 255.122 253.596C255.894 259.427 255.641 265.568 255.978 271.346C256.33 277.442 256.717 283.544 257.17 289.639C263.717 282.343 273.453 278.099 283.871 278.053C284.962 279.224 286.036 280.387 287.061 281.535Z" fill="white"/>
<path d="M327.502 271.346C327.183 279.012 326.587 286.656 325.848 294.299C325.698 295.81 323.456 296.595 322.516 295.115C316.455 285.598 303.974 280.131 291.904 281.626C291.811 281.641 291.71 281.648 291.619 281.648C292.676 280.455 293.734 279.26 294.791 278.067C305.645 277.788 315.843 282.078 322.634 289.638C323.087 283.543 323.474 277.441 323.826 271.345C324.178 265.243 323.876 258.747 324.824 252.622C325.824 252.848 326.814 253.082 327.796 253.317C328.4 259.254 327.745 265.523 327.502 271.346Z" fill="white"/>
<path d="M210.571 281.053C209.211 279.911 207.263 281.664 208.531 282.889C229.285 302.953 211.527 333.22 201.605 353.945C189.93 378.331 176.925 402.193 162.667 425.439C161.985 426.551 162.508 428.428 164.12 428.653C175.096 430.182 186.069 431.774 197.074 433.134C200.014 433.497 201.359 429.499 198.329 429.037C188.422 427.528 178.475 426.206 168.537 424.858C183.168 400.605 196.385 375.686 208.048 350.16C217.411 329.666 232.646 299.577 210.571 281.053Z" fill="white"/>
<path d="M301.855 329.931C298.264 330.049 294.715 329.934 291.157 329.609C291.118 321.773 291.11 313.936 291.01 306.1C290.96 302.168 290.934 298.232 290.799 294.301C290.696 291.322 291.376 287.718 289.244 285.276C289.16 285.18 288.939 285.179 288.855 285.276C286.866 287.588 287.471 290.74 287.387 293.564C287.263 297.74 287.263 301.921 287.241 306.1C287.196 314.458 287.257 322.816 287.272 331.174C287.274 332.211 288.171 332.803 289.217 332.925C293.428 333.418 297.611 333.598 301.855 333.472C304.381 333.395 304.391 329.846 301.855 329.931Z" fill="white"/>
<path d="M306.097 292.669C305.122 291.164 303.279 290.182 301.335 290.185C300.97 290.185 300.607 290.231 300.25 290.297C300.156 290.311 300.063 290.33 299.97 290.35C299.934 290.358 299.9 290.366 299.865 290.375C298.637 290.639 297.517 291.267 296.712 292.206C295.337 293.807 295.13 296.04 296.228 297.824C297.216 299.431 299.231 300.453 301.271 300.408C303.285 300.363 305.19 299.385 306.176 297.795C307.149 296.225 307.101 294.219 306.097 292.669Z" fill="white"/>
<path d="M306.097 315.98C305.122 314.475 303.279 313.493 301.335 313.496C300.97 313.496 300.607 313.542 300.25 313.608C300.156 313.622 300.063 313.641 299.97 313.66C299.934 313.668 299.9 313.676 299.865 313.685C298.637 313.949 297.517 314.578 296.712 315.516C295.337 317.117 295.13 319.351 296.228 321.134C297.216 322.741 299.231 323.762 301.271 323.718C303.285 323.673 305.19 322.695 306.176 321.105C307.149 319.536 307.101 317.53 306.097 315.98Z" fill="white"/>
<path d="M361.438 319.693H203.634V436.007H361.438V319.693Z" fill="#8E6B4B"/>
<path d="M240.809 319.693H203.634V436.007H240.809V319.693Z" fill="#BF8F5A"/>
<path d="M312.124 319.693H284.053V368.786H312.124V319.693Z" fill="#BF8F5A"/>
<path d="M303.778 381.627H257.5V413.349H303.778V381.627Z" fill="#BF8F5A"/>
<path d="M343.23 366.917H315.159V386.159H343.23V366.917Z" fill="#BF8F5A"/>
<path d="M350.526 284.194H235.531V320.448H350.526V284.194Z" fill="#8E6B4B"/>
<path d="M262.621 284.194H235.531V320.448H262.621V284.194Z" fill="#BF8F5A"/>
<path d="M314.59 284.194H294.134V299.496H314.59V284.194Z" fill="#BF8F5A"/>
<path d="M259.545 434.988C258.261 439.187 254.903 442.836 250.556 444.746C249.472 445.215 248.256 445.66 247.701 446.62C247.038 447.775 247.617 449.24 247.063 450.434C246.29 452.126 243.797 452.466 242.304 453.697C241.523 454.339 241.036 455.215 240.331 455.925C238.451 457.813 235.379 458.206 232.567 458.455C221.076 459.467 209.517 459.921 197.959 459.8C197.967 450.389 198.631 440.978 198.665 431.605C199.974 431.741 201.283 431.862 202.593 431.982C205.439 432.239 208.334 432.466 211.155 432.005C215.419 431.303 219.145 429.09 223.033 427.36C226.911 425.622 231.436 424.332 235.531 425.607C234.071 430.237 229.412 433.372 225.038 436.144C236.546 435.758 248.046 435.373 259.545 434.988Z" fill="#F9CEBE"/>
<path d="M306.241 434.988C307.524 439.187 310.883 442.836 315.231 444.746C316.314 445.215 317.53 445.66 318.085 446.62C318.748 447.775 318.169 449.24 318.723 450.434C319.496 452.126 321.989 452.466 323.483 453.697C324.263 454.339 324.751 455.215 325.455 455.925C327.335 457.813 330.408 458.206 333.219 458.455C344.71 459.467 356.269 459.921 367.827 459.8C367.818 450.389 367.155 440.978 367.122 431.605C365.812 431.741 364.503 431.862 363.193 431.982C360.348 432.239 357.452 432.466 354.631 432.005C350.367 431.303 346.641 429.09 342.754 427.36C338.875 425.622 334.351 424.332 330.256 425.607C331.716 430.237 336.374 433.372 340.748 436.144C329.239 435.758 317.74 435.373 306.241 434.988Z" fill="#F9CEBE"/>
<path d="M397.718 408.065C395.264 402.485 393.42 396.7 391.747 390.897C384.811 366.86 378.103 342.556 372.641 318.21C371.112 311.393 369.871 304.502 369.407 297.555C368.933 290.468 369.705 283.564 370.589 276.534C370.775 275.049 368.274 274.894 367.806 276.196C363.062 289.387 365.395 304.497 368.177 317.836C371.178 332.232 375.106 346.498 378.886 360.74C382.597 374.717 385.859 388.954 390.8 402.631C391.968 405.865 393.278 409.056 394.781 412.176C395.53 413.734 397.234 415.85 397.47 417.516C397.813 419.935 395.115 420.938 393.38 421.797C386.009 425.449 378.148 428.184 370.065 430.253C367.22 430.981 368.436 434.997 371.288 434.247C377.303 432.666 383.177 430.709 388.859 428.327C392.871 426.644 399.355 424.724 401.472 420.879C403.7 416.833 399.304 411.67 397.718 408.065Z" fill="white"/>
<path d="M304.889 255.629C304.889 264.08 297.352 271.044 287.867 271.187C277.659 271.338 269.526 263.544 270.332 254.39L270.945 247.464L273.572 217.6L303.109 216.784L304.578 248.688L304.873 254.972C304.88 255.191 304.889 255.41 304.889 255.629Z" fill="#F9CEBE"/>
<path d="M304.578 248.688C294.153 252.616 281.748 252.2 271.608 247.759C271.39 247.66 271.163 247.563 270.945 247.464L273.572 217.6L303.109 216.784L304.578 248.688Z" fill="#F4B7A4"/>
<path d="M221.724 166.321C225.113 166.8 228.709 165.943 231.391 164.016C229.74 165.363 228.291 167.269 228.719 169.238C229.147 171.206 232.417 172.412 233.696 170.77C232.502 174.266 233.433 178.048 234.651 181.537C236.274 186.189 238.401 190.7 240.99 194.985C241.871 196.441 243.031 198.021 244.848 198.296C247.735 198.733 249.663 195.722 250.462 193.189C253.69 182.953 253.443 172.125 253.171 161.488C252.974 153.783 249.157 142.989 238.068 145.196C228.605 147.078 221.878 158.285 221.724 166.321Z" fill="#282F39"/>
<path d="M358.242 166.321C354.853 166.8 351.256 165.943 348.575 164.016C350.226 165.363 351.675 167.269 351.247 169.238C350.819 171.206 347.549 172.412 346.27 170.77C347.464 174.266 346.533 178.048 345.315 181.537C343.692 186.189 341.565 190.7 338.976 194.985C338.095 196.441 336.935 198.021 335.118 198.296C332.231 198.733 330.303 195.722 329.503 193.189C326.274 182.953 326.521 172.125 326.794 161.488C326.991 153.783 330.808 142.989 341.897 145.196C351.361 147.078 358.088 158.285 358.242 166.321Z" fill="#282F39"/>
<path d="M232.541 185.551C230.732 188.631 231.266 192.282 232.355 195.58C233.512 199.083 235.251 202.456 237.512 205.578C238.774 207.322 240.257 209.035 242.352 210.116C244.447 211.198 247.281 211.525 249.388 210.46C251.965 209.158 252.631 206.377 252.935 203.911C253.725 197.509 252.486 192.591 248.171 187.366C246.161 184.932 244.411 181.716 240.344 181.496C237.117 181.322 233.899 183.241 232.541 185.551Z" fill="#F4B7A4"/>
<path d="M351.02 185.551C352.829 188.631 352.297 192.282 351.207 195.58C350.05 199.083 348.31 202.456 346.05 205.578C344.787 207.322 343.305 209.035 341.21 210.116C339.115 211.198 336.28 211.525 334.173 210.46C331.596 209.158 330.931 206.377 330.627 203.911C329.836 197.509 331.075 192.591 335.391 187.366C337.401 184.932 339.15 181.716 343.218 181.496C346.445 181.322 349.664 183.241 351.02 185.551Z" fill="#F4B7A4"/>
<path d="M336.668 144.178L336.408 186.633L336.257 211.173C332.094 237.268 290.015 243.567 290.015 243.567C258.279 244.081 246.384 213.718 246.384 213.718C246.384 213.718 246.208 201.331 246.006 187.207C245.746 168.838 245.453 147.531 245.47 146.768C246.099 115.371 288.404 114.495 288.404 114.495C331.295 111.784 336.668 144.178 336.668 144.178Z" fill="#F9CEBE"/>
<path d="M321.675 173.658C320.29 171.22 315.656 171.086 314.316 173.658C313.54 175.148 313.062 176.737 313.009 178.324C313.009 178.326 313.009 178.328 313.008 178.331C312.885 180.388 313.543 182.383 314.588 184.19C315.395 185.584 317.319 186.277 318.968 186.078C320.765 185.861 322.034 184.761 322.623 183.244C323.862 180.054 323.361 176.623 321.675 173.658Z" fill="#282F39"/>
<path d="M324.122 163.498C320.507 162.267 315.53 162.403 312.47 164.682C311.063 165.73 312.182 168.16 314.004 168.015C315.472 167.897 316.89 167.497 318.365 167.421C319.892 167.343 321.283 167.626 322.745 167.993C326.014 168.815 327.186 164.541 324.122 163.498Z" fill="#282F39"/>
<path d="M261.502 173.658C262.887 171.22 267.521 171.086 268.861 173.658C269.638 175.148 270.115 176.737 270.168 178.324C270.168 178.326 270.168 178.328 270.169 178.331C270.293 180.388 269.634 182.383 268.589 184.19C267.782 185.584 265.858 186.277 264.209 186.078C262.412 185.861 261.143 184.761 260.554 183.244C259.316 180.054 259.817 176.623 261.502 173.658Z" fill="#282F39"/>
<path d="M259.056 163.498C262.671 162.267 267.648 162.403 270.708 164.682C272.115 165.73 270.996 168.16 269.174 168.015C267.706 167.897 266.288 167.497 264.813 167.421C263.285 167.343 261.895 167.626 260.433 167.993C257.164 168.815 255.992 164.541 259.056 163.498Z" fill="#282F39"/>
<path d="M331.223 160.692C324.86 152.897 310.997 153.773 304.746 161.184C303.264 162.62 302.171 164.329 301.412 166.205C297.367 164.902 293.179 164.295 288.853 164.596C286.599 164.752 283.84 164.905 281.981 166.125C281.407 164.182 280.52 162.332 279.182 160.693C272.819 152.898 258.956 153.774 252.706 161.185C245.916 167.758 247.312 180.101 251.306 187.646C256.051 196.612 271.633 196.031 278.319 189.122C281.973 185.346 282.629 179.852 282.854 175.05C282.964 172.7 282.885 170.243 282.412 167.872C288.764 166.677 294.417 166.439 300.778 168.078C298.984 174.495 300.508 182.282 303.346 187.646C308.091 196.612 323.674 196.031 330.36 189.122C334.013 185.346 334.669 179.852 334.895 175.05C335.126 170.146 334.552 164.771 331.223 160.692ZM277.279 186.204C274.604 189.898 269.765 191.524 265.021 191.767C259.058 192.072 254.817 189.753 253 184.592C250.414 177.249 249.264 167.193 255.956 161.499C259.056 159.386 262.24 157.647 266.459 157.647C271.098 157.647 275.414 159.649 277.752 163.302C281.49 169.139 281.392 180.526 277.279 186.204ZM329.321 186.204C326.646 189.898 321.808 191.524 317.063 191.767C311.099 192.072 306.858 189.753 305.041 184.592C302.455 177.249 301.306 167.193 307.997 161.499C311.098 159.386 314.282 157.647 318.501 157.647C323.14 157.647 327.456 159.649 329.794 163.302C333.531 169.139 333.433 180.526 329.321 186.204Z" fill="black"/>
<path d="M291.708 190.321C291.041 190.418 287.794 190.532 287.753 189.558C287.741 189.293 289.229 188.038 289.497 187.723C290.15 186.952 290.731 186.168 291.043 185.225C292.062 182.131 291.438 178.093 291.239 174.928C291.176 173.926 289.615 173.942 289.52 174.928C289.231 177.949 289.964 181.809 288.905 184.694C288.286 186.381 284.965 188.083 284.931 189.893C284.871 193.029 290.248 192.697 292.345 192.404C293.865 192.192 293.224 190.102 291.708 190.321Z" fill="#F4B7A4"/>
<path d="M236.667 155.351C236.414 157.139 236.367 159.169 237.723 160.496C240.098 162.818 244.352 161.169 247.237 159.376C255.095 154.492 262.699 149.282 270.022 143.767C268.525 146.554 267.447 149.522 266.828 152.566C266.581 153.778 266.423 155.096 267.067 156.184C268.61 158.79 272.959 158.007 275.907 156.709C283.637 153.303 290.796 148.853 297.07 143.551C296.012 146.365 295.136 149.913 297.546 151.942C300.125 154.113 304.293 152.763 307.405 151.258C311.979 149.046 316.561 146.654 320.045 143.19C323.529 139.726 325.804 134.985 324.917 130.382C324.119 126.242 320.851 122.722 316.866 120.533C312.882 118.343 308.23 117.339 303.604 116.766C273.621 113.062 240.827 125.881 236.667 155.351Z" fill="#282F39"/>
<path d="M325.384 155.379C328.801 157.261 333.342 158.221 336.741 156.312C340.315 154.304 341.24 149.94 340.799 146.169C339.873 138.234 334.161 130.886 326.197 127.38C319.265 124.327 309.542 126.604 310.733 134.724C311.849 142.341 318.121 151.377 325.384 155.379Z" fill="#282F39"/>
<path d="M347.244 147.871C347.219 148.618 347.168 148.997 347.168 148.997L339.571 149.05C338.832 147.842 338.06 146.649 337.254 145.478C335.467 142.879 333.485 140.312 330.758 138.484C328.92 137.253 326.795 136.406 324.672 135.614C323.64 135.228 322.607 134.858 321.566 134.504C317.159 132.956 312.677 131.589 308.204 130.214C303.898 128.892 299.55 127.563 295.034 127.139C291.483 126.807 287.891 127.041 284.34 127.359C274.663 128.22 264.908 129.738 255.92 132.97C253.376 133.884 250.9 134.934 248.507 136.142C246.232 137.298 244.025 138.597 242.145 140.228C240.651 141.527 237.302 145.288 235.162 149.02L231.427 148.998C231.427 148.998 231.376 148.62 231.352 147.88C231.225 144.277 231.603 132.026 240.392 111.989C240.392 111.989 248.844 106.242 260.949 101.204C269.208 97.767 279.172 94.6555 289.303 93.9231C299.166 94.6404 308.86 97.6091 316.986 100.932C329.443 106.038 338.206 111.99 338.206 111.99C346.984 132.01 347.37 144.26 347.244 147.871Z" fill="#FFCA5F"/>
<path d="M260.947 101.201C259.629 111.806 257.523 122.403 255.92 132.969C253.376 133.883 250.9 134.933 248.507 136.141C246.232 137.297 244.025 138.595 242.145 140.227C240.651 141.526 237.302 145.287 235.162 149.019L231.427 148.996C231.427 148.996 231.376 148.619 231.352 147.879C231.225 144.276 231.603 132.025 240.392 111.988C240.392 111.988 248.843 106.239 260.947 101.201Z" fill="#01AA5A"/>
<path d="M347.244 147.871C347.219 148.618 347.168 148.997 347.168 148.997L339.571 149.05C338.832 147.842 338.06 146.649 337.254 145.478C335.467 142.879 333.486 140.312 330.758 138.484C328.92 137.253 326.795 136.406 324.672 135.614C323.64 135.228 322.607 134.858 321.567 134.504C320.039 123.31 318.511 112.125 316.984 100.931C329.441 106.037 338.203 111.989 338.203 111.989C346.984 132.01 347.37 144.26 347.244 147.871Z" fill="#01AA5A"/>
<path d="M289.298 122.939C259.228 122.939 235.133 133.611 231.351 147.879C231.356 148.037 231.362 148.385 231.369 148.835C231.408 151.441 233.754 153.544 236.652 153.564C238.783 153.578 240.702 152.443 241.57 150.693C243.69 146.415 247.651 140.567 253.114 138.06C262.699 133.664 275.554 131.248 289.297 131.248C303.039 131.248 315.894 133.665 325.48 138.06C330.943 140.567 334.903 146.415 337.023 150.693C337.89 152.444 339.81 153.579 341.941 153.564C344.839 153.544 347.185 151.442 347.225 148.835C347.231 148.382 347.238 148.031 347.243 147.871C343.455 133.611 319.36 122.939 289.298 122.939Z" fill="white"/>
<path d="M248.913 187.77C248.576 186.194 247.529 184.666 246.608 183.353C245.706 182.068 244.73 180.581 243.285 179.84C242.277 179.324 240.788 180.195 241.218 181.394C241.714 182.778 242.742 183.878 243.531 185.112C244.341 186.378 244.919 187.856 245.838 189.037C246.963 190.485 249.325 189.694 248.913 187.77Z" fill="white"/>
<path d="M338.153 180.899C336.516 182.175 335.559 183.89 334.566 185.593C333.611 187.228 332.543 188.931 332.283 190.772C332.119 191.925 334.127 192.674 334.924 191.757C336.188 190.303 336.808 188.439 337.564 186.73C338.344 184.964 339.217 183.278 339.408 181.366C339.468 180.748 338.589 180.559 338.153 180.899Z" fill="white"/>
<path d="M336.408 186.633L336.374 191.966L336.257 211.172C332.094 237.268 290.015 243.567 290.015 243.567C258.279 244.081 246.384 213.718 246.384 213.718C246.384 213.718 246.258 204.631 246.09 193.151C246.065 191.225 246.031 189.239 246.006 187.206C258.656 187.562 315.793 188.974 336.408 186.633Z" fill="#27A080"/>
<path d="M336.408 186.633L336.374 191.966C312.125 198.167 260.553 194.382 246.09 193.152C246.065 191.226 246.031 189.24 246.006 187.207C258.656 187.562 315.793 188.974 336.408 186.633Z" fill="#86E2C7"/>
<path d="M324.605 207.95C318.595 206.594 312.588 205.23 306.563 203.927C301.079 202.741 295.638 201.487 289.955 201.608C284.253 201.73 278.506 202.458 272.836 202.989C266.875 203.547 260.794 203.882 254.936 205.062C254.001 205.25 254.248 206.494 255.156 206.522C266.523 206.874 277.882 204.775 289.222 204.375C295.164 204.165 300.82 205.472 306.555 206.691C312.327 207.917 318.115 209.079 323.9 210.254C325.56 210.592 326.27 208.325 324.605 207.95Z" fill="#1D9372"/>
<path d="M317.818 224.566C312.676 223.21 307.536 221.846 302.382 220.544C297.689 219.358 293.034 218.104 288.172 218.225C283.293 218.347 278.376 219.076 273.525 219.606C268.425 220.164 263.221 220.499 258.209 221.679C257.41 221.867 257.621 223.112 258.397 223.139C268.123 223.491 277.841 221.392 287.544 220.992C292.628 220.782 297.467 222.09 302.374 223.308C307.312 224.534 312.264 225.696 317.214 226.871C318.635 227.208 319.242 224.943 317.818 224.566Z" fill="#1D9372"/>
</g>
</g>
<defs>
<clipPath id="clip0_61_3217">
<rect width="559" height="503" fill="white" transform="translate(-1)"/>
</clipPath>
</defs>
</svg>
