<svg width="350" height="350" viewBox="0 0 495 527" fill="none" xmlns="http://www.w3.org/2000/svg">
<path d="M247.011 526.208C383.431 526.208 494.022 517.679 494.022 507.158C494.022 496.636 383.431 488.107 247.011 488.107C110.591 488.107 0 496.636 0 507.158C0 517.679 110.591 526.208 247.011 526.208Z" fill="#BCEBE4"/>
<path d="M477.041 507.161H285.262C280.126 507.161 275.961 502.36 275.961 496.44V95.7941C275.961 89.8734 280.126 85.0732 285.262 85.0732H477.041C482.177 85.0732 486.342 89.8734 486.342 95.7941V496.44C486.342 502.36 482.179 507.161 477.041 507.161Z" fill="#0A243D"/>
<path d="M459.415 507.161H267.635C262.499 507.161 258.334 502.36 258.334 496.44V95.7941C258.334 89.8734 262.499 85.0732 267.635 85.0732H459.414C464.55 85.0732 468.715 89.8734 468.715 95.7941V496.44C468.716 502.36 464.551 507.161 459.415 507.161Z" fill="#10375C"/>
<path d="M459.577 105.084V457.525C459.577 460.641 457.386 463.154 454.683 463.154H272.358C271.813 463.154 271.302 463.049 270.814 462.866C268.872 462.133 267.475 460.025 267.475 457.525V105.084C267.475 101.982 269.667 99.4556 272.358 99.4556H454.683C457.386 99.4556 459.577 101.982 459.577 105.084Z" fill="#DEDFFF"/>
<path d="M390.958 95.239H336.092C334.869 95.239 333.877 94.0962 333.877 92.6864C333.877 91.2766 334.869 90.1338 336.092 90.1338H390.958C392.181 90.1338 393.173 91.2766 393.173 92.6864C393.173 94.0962 392.181 95.239 390.958 95.239Z" fill="#1C1D4A"/>
<path d="M365.067 503.206C373.501 503.206 380.338 495.325 380.338 485.603C380.338 475.882 373.501 468.001 365.067 468.001C356.633 468.001 349.796 475.882 349.796 485.603C349.796 495.325 356.633 503.206 365.067 503.206Z" fill="#0A243D"/>
<path d="M440.438 334.688H286.614C282.286 334.688 278.778 330.644 278.778 325.656V148.346C278.778 143.358 282.286 139.314 286.614 139.314H440.438C444.765 139.314 448.273 143.358 448.273 148.346V325.656C448.272 330.644 444.764 334.688 440.438 334.688Z" fill="#F4F6FF"/>
<path d="M434.223 376.603H295.91C294.217 376.603 292.844 375.02 292.844 373.068V355.005C292.844 353.054 294.217 351.471 295.91 351.471H434.223C435.917 351.471 437.29 353.054 437.29 355.005V373.068C437.29 375.02 435.918 376.603 434.223 376.603Z" fill="#F4F6FF"/>
<path d="M434.734 396.335H295.399C293.987 396.335 292.844 395.017 292.844 393.39C292.844 391.763 293.987 390.444 295.399 390.444H434.734C436.146 390.444 437.29 391.763 437.29 393.39C437.29 395.017 436.146 396.335 434.734 396.335Z" fill="#F4F6FF"/>
<path d="M434.734 411.356H295.399C293.987 411.356 292.844 410.038 292.844 408.411C292.844 406.784 293.987 405.465 295.399 405.465H434.734C436.146 405.465 437.29 406.784 437.29 408.411C437.29 410.036 436.146 411.356 434.734 411.356Z" fill="#F4F6FF"/>
<path d="M434.734 426.375H295.399C293.987 426.375 292.844 425.057 292.844 423.43C292.844 421.803 293.987 420.485 295.399 420.485H434.734C436.146 420.485 437.29 421.803 437.29 423.43C437.29 425.057 436.146 426.375 434.734 426.375Z" fill="#F4F6FF"/>
<path d="M434.734 441.396H295.399C293.987 441.396 292.844 440.078 292.844 438.451C292.844 436.824 293.987 435.506 295.399 435.506H434.734C436.146 435.506 437.29 436.824 437.29 438.451C437.29 440.077 436.146 441.396 434.734 441.396Z" fill="#F4F6FF"/>
<g opacity="0.3">
<path d="M459.577 105.084V108.396L278.513 463.154H272.358C271.813 463.154 271.302 463.049 270.814 462.866C268.872 462.133 267.475 460.025 267.475 457.525V393.776L417.695 99.4556H454.683C457.385 99.4556 459.577 101.982 459.577 105.084Z" fill="white"/>
<path d="M459.577 133.503V165.352L307.585 463.154H291.323L459.577 133.503Z" fill="white"/>
<path d="M404.352 99.4556L267.472 367.662V315.338L377.652 99.4556H404.352Z" fill="white"/>
</g>
<path d="M424.724 207.274H315.704V297.355H424.724V207.274Z" fill="#BF8F5A"/>
<path d="M407.129 197.87H333.297L315.704 207.274H424.724L407.129 197.87Z" fill="#FDEF47"/>
<path d="M352.567 237.915L359.574 231.725L366.575 237.915" stroke="white" stroke-width="1.1319" stroke-miterlimit="10"/>
<path d="M359.574 231.725V251.137" stroke="white" stroke-width="1.1319" stroke-miterlimit="10"/>
<path d="M373.848 237.915L380.852 231.725L387.859 237.915" stroke="white" stroke-width="1.1319" stroke-miterlimit="10"/>
<path d="M380.852 231.725V251.137" stroke="white" stroke-width="1.1319" stroke-miterlimit="10"/>
<path d="M353.617 256.53H386.812" stroke="white" stroke-width="1.1319" stroke-miterlimit="10"/>
<path d="M398.024 282.411H342.401V291.27H398.024V282.411Z" fill="white"/>
<path d="M374.221 197.87H366.201L356.389 207.274H384.034L374.221 197.87Z" fill="#BF8F5A"/>
<path d="M384.034 207.274H356.389V216.48H384.034V207.274Z" fill="#D88D33"/>
<path opacity="0.35" d="M424.724 284.668C424.724 284.668 424.165 222.807 415.654 215.285C407.143 207.763 330.057 207.274 330.057 207.274H424.722V284.668H424.724Z" fill="white"/>
<path opacity="0.3" d="M315.704 219.96C315.704 219.96 316.572 282.091 324.774 289.338C332.975 296.588 410.37 297.356 410.37 297.356H315.705V219.96H315.704Z" fill="#505285"/>
<path opacity="0.6" d="M363.801 145.538H147.651C145.411 145.538 143.595 143.445 143.595 140.864V4.88252C143.595 2.30113 145.411 0.208008 147.651 0.208008H363.801C366.04 0.208008 367.856 2.30113 367.856 4.88252V140.864C367.855 143.445 366.04 145.538 363.801 145.538Z" fill="#BCEBE4"/>
<path d="M253.727 44.881H159.307C158.203 44.881 157.309 43.8495 157.309 42.5785V25.6214C157.309 24.3504 158.204 23.3188 159.307 23.3188H253.728C254.832 23.3188 255.726 24.3504 255.726 25.6214V42.5772C255.726 43.8495 254.831 44.881 253.727 44.881Z" fill="#F4F6FF"/>
<path d="M254.159 58.2657H158.875C158.01 58.2657 157.308 57.4568 157.308 56.4593C157.308 55.4618 158.01 54.6528 158.875 54.6528H254.159C255.024 54.6528 255.726 55.4618 255.726 56.4593C255.726 57.4581 255.024 58.2657 254.159 58.2657Z" fill="#F4F6FF"/>
<path d="M254.159 71.098H158.875C158.01 71.098 157.308 70.289 157.308 69.2916C157.308 68.2941 158.01 67.4851 158.875 67.4851H254.159C255.024 67.4851 255.726 68.2941 255.726 69.2916C255.726 70.289 255.024 71.098 254.159 71.098Z" fill="#F4F6FF"/>
<path d="M254.159 83.9303H158.875C158.01 83.9303 157.308 83.1213 157.308 82.1238C157.308 81.1264 158.01 80.3174 158.875 80.3174H254.159C255.024 80.3174 255.726 81.1264 255.726 82.1238C255.726 83.1213 255.024 83.9303 254.159 83.9303Z" fill="#F4F6FF"/>
<path d="M254.159 96.7628H158.875C158.01 96.7628 157.308 95.9538 157.308 94.9563C157.308 93.9589 158.01 93.1499 158.875 93.1499H254.159C255.024 93.1499 255.726 93.9589 255.726 94.9563C255.726 95.9538 255.024 96.7628 254.159 96.7628Z" fill="#F4F6FF"/>
<path d="M254.159 109.595H158.875C158.01 109.595 157.308 108.786 157.308 107.789C157.308 106.791 158.01 105.982 158.875 105.982H254.159C255.024 105.982 255.726 106.791 255.726 107.789C255.726 108.786 255.024 109.595 254.159 109.595Z" fill="#F4F6FF"/>
<path d="M254.159 122.426H158.875C158.01 122.426 157.308 121.617 157.308 120.619C157.308 119.622 158.01 118.813 158.875 118.813H254.159C255.024 118.813 255.726 119.622 255.726 120.619C255.726 121.618 255.024 122.426 254.159 122.426Z" fill="#F4F6FF"/>
<path d="M356.586 39.3677H268.008V101.002H356.586V39.3677Z" fill="#BF8F5A"/>
<path d="M342.291 32.9336H282.302L268.008 39.3675H356.586L342.291 32.9336Z" fill="#FDEF47"/>
<path d="M297.959 60.3327L303.652 56.0977L309.341 60.3327" stroke="white" stroke-width="1.1319" stroke-miterlimit="10"/>
<path d="M303.652 56.0977V69.3791" stroke="white" stroke-width="1.1319" stroke-miterlimit="10"/>
<path d="M315.25 60.3327L320.94 56.0977L326.634 60.3327" stroke="white" stroke-width="1.1319" stroke-miterlimit="10"/>
<path d="M320.94 56.0977V69.3791" stroke="white" stroke-width="1.1319" stroke-miterlimit="10"/>
<path d="M298.812 73.0693H325.783" stroke="white" stroke-width="1.1319" stroke-miterlimit="10"/>
<path d="M334.892 90.7776H289.699V96.8389H334.892V90.7776Z" fill="white"/>
<path d="M315.553 32.9336H309.036L301.065 39.3675H323.526L315.553 32.9336Z" fill="#BF8F5A"/>
<path d="M323.526 39.3677H301.065V45.6664H323.526V39.3677Z" fill="#D88D33"/>
<path opacity="0.35" d="M356.586 92.3218C356.586 92.3218 356.132 49.9956 349.217 44.8492C342.302 39.7028 279.67 39.3677 279.67 39.3677H356.585V92.3218H356.586Z" fill="white"/>
<path opacity="0.3" d="M268.008 48.0476C268.008 48.0476 268.713 90.5583 275.377 95.5165C282.04 100.478 344.924 101.003 344.924 101.003H268.009V48.0476H268.008Z" fill="#505285"/>
<path d="M226.017 417.701C224.81 409.265 222.813 400.88 219.158 393.442C215.501 386.003 210.073 379.535 203.272 376.118C196.473 372.702 188.255 372.631 181.838 376.919C173.759 382.317 169.74 393.738 170.058 404.495C170.376 415.252 174.386 425.427 179.244 434.617C187.928 451.047 199.577 465.383 213.232 476.444C214.561 477.52 215.957 478.59 217.552 478.943C224.201 480.415 225.123 464.185 225.885 459.043C227.171 450.375 227.665 441.55 227.352 432.762C227.175 427.717 226.73 422.684 226.017 417.701Z" fill="#A0E1C3"/>
<path d="M222.2 503.581C221.899 489.049 219.929 474.647 216.974 460.535C214.003 446.348 210.031 432.467 205.716 418.755C203.266 410.963 200.7 403.219 198.129 395.479C197.377 393.214 194.289 394.454 195.043 396.725C199.554 410.309 204.053 423.907 207.939 437.749C211.777 451.416 215.032 465.336 216.983 479.539C218.089 487.596 218.771 495.728 218.94 503.884C218.989 506.31 222.25 506.004 222.2 503.581Z" fill="#01AA5A" fill-opacity="0.17"/>
<path d="M227.876 420.864C231.316 412.074 235.878 403.466 242.846 398.128C249.811 392.79 259.632 391.499 266.409 397.155C271.637 401.52 274.195 409.235 274.263 416.676C274.331 424.116 272.214 431.358 269.621 438.172C262.04 458.1 250.107 475.804 235.23 489.197C232.24 491.889 229.067 494.449 225.451 495.775C219.222 498.059 217.84 490.985 217.582 485.509C216.823 469.343 218.727 453.133 222.574 437.589C223.986 431.876 225.757 426.28 227.876 420.864Z" fill="#A0E1C3"/>
<path d="M257.686 404.846C256.85 404.283 255.98 404.705 255.449 405.523C248.194 416.686 241.831 428.607 236.459 441.106C231.078 453.623 226.662 466.703 223.315 480.129C221.424 487.715 219.882 495.411 218.683 503.181C218.528 504.183 218.918 505.213 219.825 505.499C220.616 505.749 221.681 505.19 221.836 504.183C223.945 490.518 227.131 477.082 231.352 464.082C235.543 451.174 240.77 438.714 246.919 426.894C250.41 420.184 254.203 413.687 258.272 407.425C258.802 406.609 258.387 405.317 257.686 404.846Z" fill="#01AA5A" fill-opacity="0.17"/>
<path d="M76.7399 466.742C75.8212 463.306 73.726 460.15 70.804 458.892C67.8821 457.634 63.7768 458.482 62.1449 461.546C63.9869 458.064 65.7153 454.448 66.651 450.514C67.5868 446.58 67.6765 442.267 66.291 438.514C64.9056 434.761 61.8837 431.694 58.3667 431.252C54.8496 430.809 50.7046 433.074 49.9006 437.045C49.4497 431.58 48.9875 426.05 47.3886 420.878C45.7896 415.706 42.9097 410.848 38.6988 408.285C34.4867 405.721 28.8415 405.931 25.362 409.68C22.5581 412.702 21.5644 417.428 21.762 421.848C22.1141 429.732 26.015 437.293 31.8566 441.414C28.7098 439.725 24.7022 441.387 22.6626 444.625C20.623 447.862 20.3561 452.267 21.3101 456.114C22.8227 462.217 27.4186 467.078 32.7356 468.597C29.7262 468.839 26.7826 471.194 25.4506 474.413C23.679 478.695 24.3785 483.928 26.4113 488.053C28.4429 492.177 31.6477 495.36 34.9784 498.144C39.4767 501.906 44.4234 505.151 49.854 506.513C55.2846 507.874 61.2727 507.175 65.872 503.576C72.4632 498.419 75.8519 486.506 77.0602 477.429C77.5337 473.876 77.6587 470.178 76.7399 466.742Z" fill="#A0E1C3"/>
<path d="M61.4078 497.769C59.0457 485.58 55.95 473.592 52.2013 461.88C52.2774 461.805 52.3512 461.723 52.4159 461.618C56.1408 455.64 58.8527 448.867 60.4028 441.728C60.7571 440.093 58.5676 439.395 58.2122 441.031C56.821 447.439 54.4623 453.473 51.261 458.936C48.6286 450.989 45.6908 443.177 42.4406 435.535C40.0263 429.859 37.4382 424.284 34.6956 418.809C33.9654 417.351 32.0019 418.668 32.7344 420.13C42.2441 439.116 49.7983 459.36 55.171 480.393C55.8353 482.996 56.4599 485.611 57.0572 488.236C50.625 487.573 44.378 485.334 38.7532 481.666C37.479 480.836 36.3332 483.097 37.6074 483.927C43.7659 487.941 50.6057 490.309 57.6557 490.921C58.2031 493.427 58.7289 495.941 59.2172 498.463C59.5363 500.109 61.7269 499.414 61.4078 497.769Z" fill="#01AA5A" fill-opacity="0.17"/>
<path d="M153.715 503.649L153.764 504.016C153.811 504.562 153.87 505.086 153.957 505.654C154.053 506.121 154.13 506.635 154.218 507.158H202.981C202.981 507.158 203.058 506.578 203.058 505.665C203.038 505.197 203.01 504.65 202.923 504.015C202.903 503.904 202.894 503.77 202.854 503.647C202.323 500.483 200.322 496.115 193.663 494.712C193.344 494.623 193.005 494.578 192.638 494.522H192.61C192.088 494.433 191.566 494.377 191.005 494.322C190.821 494.31 190.637 494.288 190.455 494.277C177.117 493.074 171.21 487.916 171.21 487.916C171.21 487.916 163.478 489.698 156.229 487.916C156.229 487.916 155.379 489.541 154.624 492.371C154.509 492.851 154.383 493.362 154.267 493.908C154.237 494.009 154.218 494.12 154.19 494.242C154.141 494.454 154.102 494.699 154.063 494.944C154.054 495.01 154.035 495.099 154.035 495.166C154.035 495.222 154.006 495.245 154.006 495.289C153.812 496.448 153.667 497.717 153.609 499.088C153.55 500.517 153.56 502.044 153.715 503.649Z" fill="#F3C623"/>
<path d="M153.715 503.649L153.764 504.016C153.811 504.562 153.87 505.086 153.957 505.654C154.053 506.121 154.13 506.634 154.218 507.158H166.522C166.822 503.113 165.218 498.958 162.569 496.251C160.375 494.012 157.543 492.742 154.624 492.374C154.509 492.853 154.383 493.365 154.267 493.911C154.237 494.012 154.218 494.123 154.19 494.245C154.141 494.457 154.102 494.701 154.063 494.946C154.054 495.013 154.035 495.102 154.035 495.169C154.035 495.225 154.006 495.247 154.006 495.292C153.812 496.45 153.667 497.72 153.609 499.091C153.55 500.517 153.56 502.044 153.715 503.649Z" fill="#F3AE23"/>
<path d="M176.049 488.372C175.883 488.197 175.665 488.066 175.433 488.078C175.187 488.091 175.008 488.197 174.816 488.372C174.682 488.495 174.547 488.616 174.413 488.738C173.77 489.308 173.116 489.863 172.45 490.4C172.261 490.553 172.113 490.737 172.05 491.001C171.992 491.242 172.018 491.561 172.137 491.775C172.375 492.201 172.93 492.457 173.329 492.135C174.256 491.387 175.161 490.604 176.048 489.793C176.212 489.643 176.304 489.311 176.304 489.082C176.305 488.837 176.209 488.543 176.049 488.372Z" fill="white"/>
<path d="M179.501 490.162C179.176 489.816 178.586 489.737 178.269 490.162C177.631 491.018 176.919 491.796 176.148 492.489C176.024 492.597 175.9 492.704 175.774 492.807C175.585 492.962 175.437 493.143 175.373 493.408C175.316 493.649 175.342 493.969 175.461 494.182C175.698 494.606 176.255 494.867 176.653 494.542C177.702 493.687 178.665 492.705 179.501 491.584C179.655 491.378 179.757 491.152 179.757 490.873C179.757 490.627 179.662 490.332 179.501 490.162Z" fill="white"/>
<path d="M182.674 491.46C182.509 491.285 182.291 491.154 182.058 491.166C181.844 491.178 181.58 491.255 181.441 491.46L179.464 494.39C179.315 494.61 179.208 494.809 179.208 495.101C179.208 495.347 179.304 495.641 179.464 495.811C179.63 495.987 179.848 496.118 180.081 496.106C180.294 496.096 180.559 496.017 180.697 495.811L182.674 492.882C182.823 492.662 182.93 492.463 182.93 492.171C182.93 491.925 182.835 491.63 182.674 491.46Z" fill="white"/>
<path d="M186.194 492.408C185.776 492.154 185.247 492.284 185.001 492.768C184.561 493.638 184.12 494.505 183.679 495.375C183.449 495.829 183.576 496.495 183.992 496.749C184.41 497.003 184.939 496.873 185.184 496.389C185.625 495.521 186.065 494.652 186.505 493.783C186.737 493.329 186.61 492.661 186.194 492.408Z" fill="white"/>
<path d="M153.757 504.023C153.814 504.553 153.869 505.094 153.964 505.646C154.048 506.133 154.124 506.641 154.226 507.161H202.977C202.977 507.161 203.061 506.587 203.061 505.667C203.042 505.191 203.015 504.639 202.92 504.023H153.757Z" fill="white"/>
<path d="M102.92 503.649L102.872 504.016C102.823 504.562 102.765 505.086 102.679 505.654C102.582 506.121 102.505 506.635 102.417 507.158H53.6547C53.6547 507.158 53.5775 506.578 53.5775 505.665C53.5968 505.197 53.6252 504.65 53.7127 504.015C53.732 503.904 53.741 503.77 53.7808 503.647C54.3123 500.483 56.3132 496.115 62.9725 494.712C63.2917 494.623 63.6301 494.578 63.9969 494.522H64.0264C64.5488 494.433 65.07 494.377 65.631 494.322C65.815 494.31 65.999 494.288 66.1818 494.277C79.5197 493.074 85.4261 487.916 85.4261 487.916C85.4261 487.916 93.1586 489.698 100.407 487.916C100.407 487.916 101.258 489.541 102.012 492.371C102.128 492.851 102.254 493.362 102.37 493.908C102.399 494.009 102.418 494.12 102.447 494.242C102.496 494.454 102.534 494.699 102.573 494.944C102.582 495.01 102.601 495.099 102.601 495.166C102.601 495.222 102.631 495.245 102.631 495.289C102.824 496.448 102.969 497.717 103.027 499.088C103.084 500.517 103.075 502.044 102.92 503.649Z" fill="#F3C623"/>
<path d="M102.921 503.649L102.872 504.016C102.823 504.562 102.765 505.086 102.679 505.654C102.582 506.121 102.505 506.634 102.417 507.158H90.1129C89.8131 503.113 91.4178 498.958 94.0661 496.251C96.2601 494.012 99.0923 492.742 102.011 492.374C102.127 492.853 102.253 493.365 102.369 493.911C102.398 494.012 102.417 494.123 102.446 494.245C102.495 494.457 102.533 494.701 102.572 494.946C102.581 495.013 102.6 495.102 102.6 495.169C102.6 495.225 102.63 495.247 102.63 495.292C102.823 496.45 102.968 497.72 103.026 499.091C103.084 500.517 103.075 502.044 102.921 503.649Z" fill="#F3AE23"/>
<path d="M80.585 488.372C80.7508 488.197 80.9689 488.066 81.2017 488.078C81.447 488.091 81.6264 488.197 81.8183 488.372C81.9523 488.495 82.0875 488.616 82.2215 488.738C82.8642 489.308 83.5184 489.863 84.1839 490.4C84.3735 490.553 84.5211 490.737 84.5847 491.001C84.6426 491.242 84.6165 491.561 84.4973 491.775C84.2588 492.201 83.7046 492.457 83.3049 492.135C82.3782 491.387 81.4731 490.604 80.5862 489.793C80.4227 489.643 80.3307 489.311 80.3307 489.082C80.3295 488.837 80.4249 488.543 80.585 488.372Z" fill="white"/>
<path d="M77.1328 490.162C77.4587 489.816 78.0481 489.737 78.3649 490.162C79.0032 491.018 79.7152 491.796 80.4863 492.489C80.6101 492.597 80.7338 492.704 80.8599 492.807C81.0484 492.962 81.1972 493.143 81.2608 493.408C81.3187 493.649 81.2926 493.969 81.1733 494.182C80.936 494.606 80.3795 494.867 79.9809 494.542C78.9327 493.687 77.9697 492.705 77.1328 491.584C76.9795 491.378 76.8773 491.152 76.8773 490.873C76.8784 490.627 76.9727 490.332 77.1328 490.162Z" fill="white"/>
<path d="M73.9598 491.46C74.1256 491.285 74.3436 491.154 74.5764 491.166C74.7899 491.178 75.0545 491.255 75.1931 491.46L77.1702 494.39C77.319 494.61 77.4257 494.809 77.4257 495.101C77.4257 495.347 77.3303 495.641 77.1702 495.811C77.0044 495.987 76.7864 496.118 76.5536 496.106C76.3401 496.096 76.0755 496.017 75.9369 495.811L73.9598 492.882C73.811 492.662 73.7043 492.463 73.7043 492.171C73.7054 491.925 73.7997 491.63 73.9598 491.46Z" fill="white"/>
<path d="M70.4405 492.408C70.8584 492.154 71.3876 492.284 71.6329 492.768C72.0736 493.638 72.5142 494.505 72.9548 495.375C73.1853 495.829 73.0581 496.495 72.6425 496.749C72.2246 497.003 71.6954 496.873 71.4501 496.389C71.0095 495.521 70.5689 494.652 70.1294 493.783C69.8977 493.329 70.0249 492.661 70.4405 492.408Z" fill="white"/>
<path d="M102.879 504.023C102.822 504.553 102.766 505.094 102.672 505.646C102.588 506.133 102.512 506.641 102.409 507.161H53.6571C53.6571 507.161 53.5731 506.587 53.5731 505.667C53.5924 505.191 53.6196 504.639 53.7139 504.023H102.879Z" fill="white"/>
<path d="M85.4252 487.917C85.4252 487.917 70.4122 335.983 74.8922 270.839H111.479C111.479 270.839 106.342 373.47 100.406 487.917C100.406 487.917 94.0536 489.62 85.4252 487.917Z" fill="#FFA785"/>
<path d="M111.479 270.839C125.76 327.821 156.227 487.917 156.227 487.917C156.227 487.917 164.925 490.553 171.208 487.917C171.208 487.917 163.574 368.463 151.336 270.839H111.479Z" fill="#FFA785"/>
<path d="M71.541 269.016C71.541 269.016 72.7141 369.545 80.3296 476.749C80.3296 476.749 91.3519 480.087 105.83 476.749L113.756 295.869L147.733 475.571C147.733 475.571 162.413 478.909 175.343 475.375C175.343 475.375 164.411 307.892 154.191 271.961L71.541 269.016Z" fill="#0A243D"/>
<path d="M218.582 100.22C217.799 97.9278 219.487 95.3962 219.172 92.841C218.858 90.2857 216.279 85.3154 218.365 83.8061C220.695 82.1201 224.068 89.9127 224.068 89.9127C224.068 89.9127 233.418 76.2138 235.699 77.621C237.668 78.8357 231.478 89.4598 231.478 89.4598C231.478 89.4598 235.977 91.7165 235.357 97.3165C234.781 102.512 229.07 105.773 229.07 105.773L218.582 100.22Z" fill="#FFA785"/>
<path d="M127.934 135.238C159.463 141.266 190.882 147.121 191.851 147.084C192.821 147.048 214.761 99.5197 216.124 98.7343C219.572 96.7472 229.665 101.525 230.517 105.858C230.815 107.374 210.128 171.653 197.882 175.605C182.451 180.583 145.425 174.479 145.425 174.479L127.934 135.238Z" fill="#F3C623"/>
<path d="M68.8359 281.03C70.2202 284.404 116.378 295.363 154.098 281.148C155.421 280.649 142.332 141.004 142.332 141.004L127.643 135.122L113.003 134.775L97.6615 139.07C97.6615 139.07 66.6033 275.587 68.8359 281.03Z" fill="#F4F6FF"/>
<path d="M130.104 286.588V295.865C130.104 295.865 142.369 296.209 159.572 289.533L158.21 281.286L130.104 286.588Z" fill="#01AA5A"/>
<path d="M128.767 135.397L127.634 290.024C127.634 290.024 146.371 290.158 160.339 282.826L142.215 137.958L128.767 135.397Z" fill="#01AA5A"/>
<path d="M144.439 179.07C144.439 185.53 141.541 190.768 137.967 190.768C134.392 190.768 131.495 185.53 131.495 179.07C131.495 172.61 134.393 167.373 137.967 167.373C141.541 167.373 144.439 172.61 144.439 179.07Z" fill="#F3C623"/>
<path d="M68.1977 281.875L66.7384 290.024C66.7384 290.024 73.8929 295.865 101.679 295.865L102.063 287.25L68.1977 281.875Z" fill="#01AA5A"/>
<path d="M111.457 135.208C111.457 135.208 104.809 278.047 104.468 290.024C104.468 290.024 79.0883 289.631 66.1422 283.741C66.1422 283.741 84.0408 188.974 97.6615 139.069L111.457 135.208Z" fill="#01AA5A"/>
<path d="M81.6889 261.169C82.82 261.596 82.9528 263.359 84.7471 264.244C86.5414 265.128 89.8892 264.694 91.0817 265.789C92.2741 266.883 99.098 277.162 96.9994 278.714C94.9008 280.268 92.2332 273.771 92.0696 273.77C91.905 273.769 95.6219 281.67 93.7913 282.743C91.9618 283.817 88.7298 274.118 88.514 274.168C88.2982 274.218 90.2833 281.987 88.405 282.518C86.5255 283.05 85.2616 275.291 85.0583 275.246C84.855 275.201 85.5194 281.183 84.1577 281.25C82.795 281.316 81.9137 273.839 81.6083 273.771C81.3028 273.703 78.3433 274.559 76.1732 273.435C74.0041 272.31 72.1735 266.765 73.216 265.005C74.2562 263.244 80.2171 260.614 81.6889 261.169Z" fill="#FFA785"/>
<path d="M97.6615 139.069C78.8624 144.924 40.7928 184.39 41.8149 200.884C42.8369 217.377 72.0497 271.961 72.0497 271.961C72.0497 271.961 82.8359 270.243 86.7845 262.88C86.7845 262.88 65.1417 203.534 65.3972 201.326C65.6528 199.118 87.7464 183.491 87.7464 183.491C106.521 157.589 97.6615 139.069 97.6615 139.069Z" fill="#F3C623"/>
<path d="M108.184 113.072C105.113 111.399 102.806 108.217 101.326 104.693C99.8464 101.169 99.1174 97.2955 98.528 93.4404C98.1759 91.1379 97.8693 88.7686 98.2554 86.4725C98.6404 84.1765 99.8476 81.9328 101.736 81.0781C102.071 77.0227 103.692 73.7659 106.421 71.1766C109.148 68.5874 112.478 66.9773 115.854 65.7717C120.062 64.2689 124.423 63.3395 128.817 63.007C133.329 62.6667 138.237 63.1117 141.699 66.4641C143.836 68.535 145.21 71.6191 145.426 74.8262C145.642 78.0346 144.695 81.3255 142.859 83.7498C144.743 85.6609 145.67 88.8262 145.328 91.6903C144.986 94.5557 143.634 97.1698 141.877 99.2342C140.12 101.299 137.973 102.864 135.774 104.258C127.584 109.458 116.637 117.678 108.184 113.072Z" fill="black"/>
<path d="M106.623 109.742C106.623 109.742 112.395 122.367 113.08 139.472C116.421 147.1 125.47 145.553 127.488 138.498C127.159 131.996 128.051 128.902 129.778 126.586C129.919 126.391 130.06 126.218 130.21 126.035C130.313 125.905 130.416 125.786 130.529 125.667C130.735 125.429 130.971 125.213 131.195 124.975C132.753 123.427 134.715 121.967 136.939 119.511C139.549 116.655 141.435 112.792 142.027 106.809C142.036 106.723 142.045 106.637 142.055 106.55C142.064 106.398 142.074 106.258 142.084 106.107C142.093 106.041 142.093 105.977 142.103 105.911C142.516 100.188 141.83 92.5935 139.579 82.1632C137.241 71.3441 114.114 68.2064 108.294 82.4119C105.9 88.2763 106.623 109.742 106.623 109.742Z" fill="#FFA785"/>
<path d="M139.636 78.7978C139.25 80.2233 138.413 81.4499 137.4 82.3819C136.387 83.3139 135.204 83.9697 133.994 84.4999C127.833 87.1951 120.662 86.6362 114.873 83.0089C115.217 84.2708 114.834 85.7932 114.143 86.8483C113.451 87.9033 112.303 88.5395 111.156 88.5015C111.792 91.8932 111.643 95.4983 110.622 98.763C109.601 102.028 107.771 104.951 105.403 107.095C104.562 103.273 103.822 99.6714 103.491 95.747C103.159 91.8225 103.358 87.7777 104.555 84.0836C106.139 79.1944 109.446 75.1482 113.442 72.6951C117.44 70.2433 122.084 69.3362 126.598 69.7511C129.35 70.0038 132.099 70.7486 134.526 72.2671C136.95 73.7829 138.514 75.8904 139.636 78.7978Z" fill="black"/>
<path d="M123.344 102.64C123.391 103.574 124.086 104.287 124.897 104.232C125.707 104.177 126.326 103.376 126.278 102.441C126.23 101.508 125.535 100.795 124.725 100.851C123.914 100.905 123.296 101.707 123.344 102.64Z" fill="black"/>
<path d="M124.786 102.078C124.803 102.419 125.058 102.681 125.355 102.66C125.651 102.64 125.878 102.346 125.86 102.004C125.843 101.663 125.588 101.402 125.291 101.422C124.995 101.441 124.769 101.736 124.786 102.078Z" fill="white"/>
<path d="M134.689 101.869C134.736 102.803 135.432 103.516 136.242 103.461C137.052 103.406 137.67 102.605 137.622 101.67C137.574 100.737 136.879 100.024 136.068 100.08C135.26 100.134 134.641 100.936 134.689 101.869Z" fill="black"/>
<path d="M136.132 101.306C136.149 101.648 136.404 101.91 136.701 101.889C136.997 101.869 137.223 101.575 137.206 101.233C137.189 100.891 136.934 100.63 136.637 100.651C136.341 100.672 136.115 100.965 136.132 101.306Z" fill="white"/>
<path d="M127.733 110.094C128.13 109.246 129.385 109.983 130.821 109.983C132.256 109.983 133.511 109.246 133.908 110.094C134.411 111.167 133.173 113.834 130.821 113.834C128.469 113.834 127.23 111.166 127.733 110.094Z" fill="#8E4136"/>
<path d="M127.934 111.868C128.384 111.801 128.863 111.76 129.369 111.76C131.041 111.76 132.471 112.156 133.138 112.724C132.59 113.352 131.811 113.834 130.821 113.834C129.408 113.834 128.407 112.869 127.934 111.868Z" fill="#C16B5B"/>
<path d="M130.822 110.912C129.54 110.912 128.451 110.561 128.053 109.764C128.62 109.501 129.662 109.981 130.822 109.981C131.982 109.981 133.024 109.501 133.59 109.764C133.192 110.562 132.103 110.912 130.822 110.912Z" fill="white"/>
<path d="M133.101 106.578C133.184 106.573 133.257 106.505 133.277 106.407C133.567 104.941 133.116 104.478 132.688 104.351C132.253 104.223 131.748 104.384 131.187 104.837C131.101 104.907 131.08 105.045 131.141 105.146C131.203 105.246 131.324 105.268 131.409 105.2C131.871 104.825 132.27 104.683 132.591 104.78C132.976 104.893 133.081 105.409 132.903 106.308C132.881 106.426 132.944 106.545 133.049 106.573C133.065 106.578 133.084 106.579 133.101 106.578Z" fill="#CC7656"/>
<path d="M138.404 94.8999C136.575 93.9535 134.435 94.032 132.71 95.2559C132.288 95.5557 132.088 96.2482 132.37 96.7522C132.643 97.2404 133.214 97.4656 133.668 97.1449C133.841 97.0218 134.02 96.9171 134.202 96.8124C134.221 96.8032 134.217 96.8045 134.229 96.7993C134.262 96.7849 134.294 96.7692 134.327 96.7548C134.399 96.7247 134.47 96.6959 134.543 96.6697C134.736 96.599 134.933 96.5414 135.133 96.4969C135.183 96.4864 135.503 96.3948 135.256 96.4694C135.338 96.4445 135.437 96.4485 135.521 96.4419C135.711 96.4275 135.901 96.4249 136.091 96.4354C136.192 96.4406 136.293 96.4524 136.394 96.4616C136.406 96.4629 136.409 96.4629 136.417 96.4629C136.432 96.4668 136.451 96.4707 136.481 96.476C136.668 96.5139 136.853 96.5623 137.035 96.6239C137.131 96.6566 137.228 96.6932 137.323 96.7338C137.361 96.7495 137.398 96.7666 137.436 96.7836C137.442 96.7875 137.439 96.7849 137.448 96.7901C137.45 96.7914 137.454 96.7914 137.456 96.7927C137.459 96.794 137.462 96.7954 137.465 96.7967C137.462 96.7954 137.463 96.7954 137.459 96.794C137.909 97.0218 138.492 96.9537 138.746 96.3987C138.963 95.9183 138.887 95.1499 138.404 94.8999Z" fill="black"/>
<path d="M127.307 94.8999C125.478 93.9535 123.338 94.032 121.613 95.2559C121.191 95.5557 120.991 96.2482 121.273 96.7522C121.547 97.2404 122.119 97.4656 122.571 97.1449C122.745 97.0218 122.924 96.9171 123.106 96.8124C123.125 96.8032 123.121 96.8045 123.132 96.7993C123.165 96.7849 123.198 96.7692 123.231 96.7548C123.303 96.7247 123.374 96.6959 123.447 96.6697C123.64 96.599 123.837 96.5414 124.036 96.4969C124.086 96.4864 124.407 96.3948 124.16 96.4694C124.242 96.4445 124.341 96.4485 124.426 96.4419C124.616 96.4275 124.806 96.4249 124.996 96.4354C125.097 96.4406 125.198 96.4524 125.299 96.4616C125.311 96.4629 125.314 96.4629 125.322 96.4629C125.337 96.4668 125.356 96.4707 125.387 96.476C125.574 96.5139 125.759 96.5623 125.941 96.6239C126.039 96.6566 126.134 96.6932 126.229 96.7338C126.267 96.7495 126.304 96.7666 126.342 96.7836C126.349 96.7875 126.345 96.7849 126.354 96.7901C126.356 96.7914 126.36 96.7914 126.362 96.7927C126.366 96.794 126.368 96.7954 126.371 96.7967C126.368 96.7954 126.369 96.7954 126.366 96.794C126.815 97.0218 127.398 96.9537 127.652 96.3987C127.866 95.9183 127.79 95.1499 127.307 94.8999Z" fill="black"/>
<path d="M101.633 110.573C103.734 113.138 106.868 113.659 108.634 111.737C110.4 109.815 110.128 106.178 108.028 103.613C105.927 101.049 102.792 100.528 101.026 102.449C99.2616 104.372 99.5319 108.009 101.633 110.573Z" fill="#FFA785"/>
<path d="M102.376 103.684C103.184 103.118 104.298 103.066 105.354 103.548C105.881 103.787 106.27 104.096 106.544 104.49C106.908 105.013 107.036 105.692 106.878 106.261C106.739 106.773 106.409 107.12 106.117 107.428C105.907 107.65 105.709 107.86 105.602 108.102C105.439 108.474 105.511 108.974 105.769 109.266C106.027 109.556 106.461 109.627 106.781 109.431C106.969 109.314 107.201 109.396 107.301 109.612C107.401 109.827 107.33 110.097 107.144 110.212C106.94 110.339 106.714 110.408 106.484 110.423C106.029 110.454 105.562 110.271 105.232 109.899C104.735 109.339 104.604 108.416 104.917 107.703C105.086 107.318 105.359 107.03 105.598 106.776C105.839 106.521 106.067 106.28 106.146 105.993C106.225 105.706 106.146 105.333 105.944 105.043C105.863 104.926 105.754 104.823 105.636 104.723C105.254 104.746 104.785 104.913 104.559 105.232C104.306 105.594 104.203 106.098 104.291 106.551C104.338 106.789 104.208 107.026 104.001 107.08C103.98 107.086 103.959 107.089 103.938 107.09C103.754 107.103 103.584 106.96 103.542 106.746C103.4 106.024 103.557 105.251 103.962 104.675C104.113 104.461 104.307 104.31 104.513 104.184C103.868 104.03 103.244 104.112 102.773 104.441C102.192 104.846 101.787 105.822 102.135 106.569C102.235 106.785 102.164 107.053 101.978 107.169C101.791 107.284 101.559 107.203 101.458 106.987C100.953 105.899 101.373 104.386 102.376 103.684Z" fill="#CC7656"/>
<path opacity="0.6" d="M198.414 337.746H11.2472C9.27693 337.746 7.68024 335.905 7.68024 333.634V246.435C7.68024 244.164 9.27693 242.323 11.2472 242.323H198.414C200.385 242.323 201.981 244.164 201.981 246.435V333.634C201.981 335.905 200.385 337.746 198.414 337.746Z" fill="#BCEBE4"/>
<path d="M39.4198 282.518H18.4505C17.4466 282.518 16.6335 281.581 16.6335 280.424V256.251C16.6335 255.094 17.4466 254.157 18.4505 254.157H39.421C40.4249 254.157 41.238 255.095 41.238 256.251V280.424C41.238 281.579 40.4237 282.518 39.4198 282.518Z" fill="#F3AE23"/>
<path d="M139.476 257.492H49.9209C49.1215 257.492 48.4742 256.745 48.4742 255.823C48.4742 254.902 49.1226 254.156 49.9209 254.156H139.476C140.276 254.156 140.923 254.903 140.923 255.823C140.924 256.746 140.276 257.492 139.476 257.492Z" fill="#F4F6FF"/>
<path d="M191.581 265.835H49.9221C49.1226 265.835 48.4753 265.087 48.4753 264.166C48.4753 263.244 49.1237 262.497 49.9221 262.497H191.581C192.381 262.497 193.029 263.244 193.029 264.166C193.029 265.087 192.381 265.835 191.581 265.835Z" fill="#F4F6FF"/>
<path d="M191.581 274.176H49.9221C49.1226 274.176 48.4753 273.428 48.4753 272.507C48.4753 271.585 49.1237 270.838 49.9221 270.838H191.581C192.381 270.838 193.029 271.585 193.029 272.507C193.029 273.43 192.381 274.176 191.581 274.176Z" fill="#F4F6FF"/>
<path d="M191.581 282.518H49.9221C49.1226 282.518 48.4753 281.771 48.4753 280.849C48.4753 279.928 49.1237 279.181 49.9221 279.181H191.581C192.381 279.181 193.029 279.929 193.029 280.849C193.029 281.771 192.381 282.518 191.581 282.518Z" fill="#F4F6FF"/>
<path d="M39.4198 325.913H18.4505C17.4466 325.913 16.6335 324.974 16.6335 323.819V299.646C16.6335 298.489 17.4466 297.552 18.4505 297.552H39.4209C40.4248 297.552 41.2379 298.49 41.2379 299.646V323.819C41.2379 324.974 40.4237 325.913 39.4198 325.913Z" fill="#F3AE23"/>
<path d="M139.476 300.888H49.921C49.1215 300.888 48.4742 300.14 48.4742 299.219C48.4742 298.297 49.1226 297.55 49.921 297.55H139.476C140.276 297.55 140.923 298.297 140.923 299.219C140.924 300.141 140.276 300.888 139.476 300.888Z" fill="#F4F6FF"/>
<path d="M191.581 309.23H49.9221C49.1226 309.23 48.4753 308.482 48.4753 307.561C48.4753 306.639 49.1237 305.892 49.9221 305.892H191.581C192.381 305.892 193.029 306.639 193.029 307.561C193.029 308.482 192.381 309.23 191.581 309.23Z" fill="#F4F6FF"/>
<path d="M191.581 317.571H49.9221C49.1226 317.571 48.4753 316.824 48.4753 315.902C48.4753 314.981 49.1237 314.233 49.9221 314.233H191.581C192.381 314.233 193.029 314.981 193.029 315.902C193.029 316.825 192.381 317.571 191.581 317.571Z" fill="#F4F6FF"/>
<path d="M191.581 325.913H49.9221C49.1226 325.913 48.4753 325.166 48.4753 324.244C48.4753 323.323 49.1237 322.576 49.9221 322.576H191.581C192.381 322.576 193.029 323.324 193.029 324.244C193.029 325.166 192.381 325.913 191.581 325.913Z" fill="#F4F6FF"/>
<path opacity="0.6" d="M84.7244 131.661H20.5934C18.4062 131.661 16.6335 129.618 16.6335 127.097V53.1725C16.6335 50.6513 18.4062 48.6079 20.5934 48.6079H84.7256C86.9128 48.6079 88.6855 50.6513 88.6855 53.1725V127.097C88.6855 129.617 86.9117 131.661 84.7244 131.661Z" fill="#BCEBE4"/>
<path d="M52.6589 124.593C69.169 124.593 82.5531 109.165 82.5531 90.134C82.5531 71.103 69.169 55.6753 52.6589 55.6753C36.1488 55.6753 22.7647 71.103 22.7647 90.134C22.7647 109.165 36.1488 124.593 52.6589 124.593Z" fill="#F4F6FF"/>
<path d="M56.3293 98.9894C56.3293 97.6477 56.042 96.5939 55.4674 95.8295C54.8927 95.065 53.8832 94.3424 52.4386 93.663C50.9941 92.9836 49.6598 92.2951 48.4367 91.5987C47.2136 90.9023 46.1598 90.0946 45.2751 89.1783C44.3905 88.2607 43.7125 87.1991 43.2412 85.9921C42.7699 84.7852 42.5337 83.3244 42.5337 81.6082C42.5337 78.7376 43.3741 76.3708 45.0537 74.5107C46.7344 72.6506 48.9739 71.5667 51.7743 71.2617V65.8843H55.2891V71.3638C57.9862 71.822 60.1053 73.1009 61.6452 75.1993C63.1851 77.2976 63.9562 79.9602 63.9562 83.1882H56.4837C56.4837 81.4211 56.1885 80.0623 55.5991 79.1106C55.0097 78.159 54.1693 77.6838 53.0791 77.6838C52.1059 77.6838 51.3507 78.0359 50.8124 78.7415C50.2741 79.4471 50.005 80.4197 50.005 81.6593C50.005 82.916 50.315 83.9147 50.9339 84.653C51.5528 85.3926 52.5477 86.0969 53.9184 86.7684C55.2891 87.4399 56.5825 88.1363 57.7988 88.8576C59.0151 89.5802 60.0644 90.3996 60.949 91.3172C61.8337 92.2349 62.5264 93.3057 63.0272 94.5283C63.528 95.7509 63.779 97.2209 63.779 98.9371C63.779 101.842 62.9795 104.212 61.3806 106.048C59.7816 107.883 57.6035 108.952 54.8473 109.259V114.381H51.3325V109.233C48.1199 108.842 45.6544 107.571 43.9374 105.423C42.2203 103.274 41.3618 100.441 41.3618 96.9238H48.8126C48.8126 98.8611 49.1851 100.335 49.9289 101.346C50.6727 102.356 51.7311 102.862 53.1018 102.862C54.1046 102.862 54.8927 102.517 55.4674 101.83C56.042 101.143 56.3293 100.196 56.3293 98.9894Z" fill="#127681"/>
</svg>
